<mxfile host="Electron" modified="2023-05-16T00:52:12.788Z" agent="Mozilla/5.0 (Macintosh; Intel Mac OS X 10_15_7) AppleWebKit/537.36 (KHTML, like Gecko) draw.io/21.2.8 Chrome/112.0.5615.165 Electron/24.2.0 Safari/537.36" etag="zHGSSAINx_-ZVPEzGqyy" version="21.2.8" type="device">
  <diagram name="第 1 页" id="GuqQhHlGz7ZDIUzT2V0R">
    <mxGraphModel dx="907" dy="674" grid="0" gridSize="10" guides="1" tooltips="1" connect="1" arrows="1" fold="1" page="0" pageScale="1" pageWidth="827" pageHeight="1169" math="0" shadow="0">
      <root>
        <mxCell id="0" />
        <mxCell id="1" parent="0" />
        <mxCell id="Bpij4LCqo1jzHkcabdwD-1" value="" style="shape=image;verticalLabelPosition=bottom;labelBackgroundColor=default;verticalAlign=top;aspect=fixed;imageAspect=0;image=data:image/png,iVBORw0KGgoAAAANSUhEUgAAA7gAAAEmCAYAAABIyjxBAAAACXBIWXMAABYlAAAWJQFJUiTwAAAgAElEQVR4nOzdd1zTd/4H8BdkkAQIYe8NIooD3KO1dg+7zi6711179+s+q113ndq926ut3dfrbl1tLWDdE0E2giAjYY8EQvYgvz9arUoSAyR8Mt7Px6MPNd/xeYE25P39LD+LxWIBIYQQQgghhBDi4fxZByCEEEIIIYQQQpyBClxCCCGEEEIIIV6BClxCCCGEEEIIIV6BClxCCCGEEEIIIV6BClxCCCGEEEIIIV6BClxCCCGEEEIIIV6BClxCCCGEEEIIIV6BClxCCCGEEEIIIV6BClxCCCGEEEIIIV6BClxCCCGEEEIIIV6BClxCCCGEEEIIIV6BClxCCCGEEEIIIV6BClxCCCGEEEIIIV6BClxCCCGEEEIIIV6BClxCCCGEEEIIIV6BClxCCCGEEEIIIV6BClxCCCGEEEIIIV6BClxCCCGEEEIIIV6BClxCCCGEEEIIIV6BClxCCCGEEEIIIV6BClxCCCGEEEIIIV6BClxCCCGEEEIIIV6BClxCCCGEEEIIIV6BClxCCCGEEEIIIV6BClxCCCGEEEIIIV6BClxCCCGEEEIIIV6BClxCCCGEEEIIIV6BClxCCCGEEEIIIV6BClxCCCGEEEIIIV6BClxCCCGEEEIIIV6BClxCCCGEEEIIIV6BClxCCCGEEEIIIV6BClxCCCGEEEIIIV6BClxCCCGEEEIIIV6BClxCCCGEEEIIIV6BClxCCCGEEEIIIV6BClxCCCGEEEIIIV6BClxCCCGEEEIIIV6BClxCCCGEEEIIIV6BClxCCCGEEEIIIV6BClxCCCGEEEIIIV6BClxCCCGEEEIIIV6BClxCCCGEEEIIIV6BClxCCCGEEEIIIV6BClxCCCGEEEIIIV6BClxCCCGEEEIIIV6BClxCCCGEEEIIIV6BClxCCCGEEEIIIV6BClxCCCGEEEIIIV6BClxCCCGEEEIIIV6BClxCCCGEEEIIIV6BClxCCCGEEEIIIV6BClxCCCGEEEIIIV6BClxCCCGEEEIIIV6BClxCCCGEEEIIIV6BClxCCCGEEEIIIV6BClxCCCGEEEIIIV6BClxCCCGEEEIIIV6BClxCCCGEEEIIIV6BClxCCCGEEEIIIV6ByzoAcb4ubS+0Jh3UZi20Zi20Zh20Jv3vv5oNACwI8OeB68eFn58f2jVdUJtUaOjZgbCAMAAWWGDBkGUI/n7+kASEI0wQAb4/HxHCaMSI4iHgCiHiiCDiBiGQFwQhV8T6yyYexGKxoF0tRbeuCxqjGhqTChqTGhqjGuo/fq81/v6r2qSCiBv0x38iCHmBCDz2e24gRLxACLmBCOeHIzYoCQKOgPWXR0ZAbVThq/qP0KluRb9BbvWc0IBwPD7zpXFORgghxJv9+8B9qBuoRp+u6/hrqcGZmBw2A9dm3ILYwESG6chYUIHr4YxDRgzo5RgwKNCl7cCPTd9jUeJfEMwLRDAvCCG8ECQHJkDCF4Pnb/uvu0HZiDf6DmBf91aH244LTAbfPwBxokRw/XlICk5FfGASUoLTEcKXQBIQDj4nwBlfJvFABrMe7WoZ2jWtv/+qlqFDJUWbpgXtGpnL2g0PiEJcYBLiA5MRF5iI2MAExAUmIk6UiGC+2GXtkpGrVpTj/l03OHRuQKkQy3OfdnEiQgghvuAvmxdCaewf9nrTYD2aBuuh0PXi6TlvMEhGnMHPYrFYWIcgjlMaBiDXdaNBWQfpYBMaB+rQr1egW9cOub4HWZI8vDTvPwjkBY343i2DUrxc9gxqFfvHlFHIDUKMMA4xwnjEBiYgJjARUYFJyA3PQyD19HotjUmNGkUFynoO4FDPARwZqGQdaZg4USLyIucjN3IuJodOQ4QwinUkn6UzaXHL1iUnPTk/nctTbsC9Ux91YSpCCCHe7rmDD2N7x+bTnnfvlCdweep145CIOBsVuG5OZ9KiW9uOFlUTynoOonGgDm2aFsj1PcPOjRImYfWct5EiTh91ey2DUrxV+TLKe7eNJfawXOckLUWoMAE8fy5ihBGI4EuQFJQIjh9NA/dUxwraWnkFyntLUNq3l3WkEcsUT8a0iNmYFDYNk0KnUsE7jnZ3bMVTB+8b8XXXpt+Bv05+0AWJiDNUyUvxYfUbkKkbMWBQuKwdAUeAxMAMXJG2DBckXe6ydpzti7r3sb9zB1pU9dCatazjjBs/+IHvHwA+hw+efwB4/nzw/fngcfjg+fHB8+cjmCdGsjgDKeJ0pAZlIFmcAa6dkWeEjMaXRz7Ex7WO9cxGCmPx/qLvIeaHuDgVcTYqcN2Q0tCPdk0rDnbuRkXfIXRp29CuabF7Ddc/APdNfRIXJ1025vbrlUfxRvlzqFMcHNN9QgUxWBB7AZZl3IxoYTQAQGEYQKemB3u7dqKsex9EXCGWpF6FeVHz6QeZB5Dr+rCvaxv2dWxHhbwYGpOKdSSnmizJw9yYRZgXswgp4gzWcbzadw2f4f2al0d17S1Z9+KmrLucnIiM1fcNn2NNzfjPlZ4VeQaen/feuLc7Uo72GpE/JQWlISUoEyniDKSIMzBBMgkxonjWsYiH0po0+PuOa9Cqbnb4mr9PXoml6Te5LhRxCSpw3YTKOIhWdQvKeg5gf+dOHB2sg3YExcPZCUvxWN7p56fVDzQgM+T0H9wrFdVYU/Uy6hTFDmc4hucvQE74PNww4XZMD8+1cZYFDf21+EW6ATKVFNNiL0BqYDxSAhMQHxgz4jaJ65iGTNjXtQP7OrZjb+cWqEyDrCONi7lRZ2Fe7FmYF70YYYJw1nG8zhd17+PTurdHff1dkx7G1Rm3ODERGYv6/sP4+86rmbX/0LSncXHyUmbtn87Wts1YXfIw6xheIUoYh6lhszAlIhdZIZORIclmHYl4iI1N3+CtymdHdE26eCLWnPUd/ODnolTEFajLjCGLxQLpYCMO9uxBUdceNA/WQ67vHvF9okQJuHOi/d6MSnklni1+GGJ+KO6ZshLTw6fbPX9K6GTckHU31lSuRru60eEsEcJ4XJl6C65KvwYcP3v/vPyQIcnGfX/8YDIMGdGsakPNQAOK5ZVIC05CRnAyhLQiLjPlfcXY17Ed+zq3oe00Iwi80f7u7djfvR1rua9ifsy5fxS7i2ikgZt4v+ZlBHAEuCz1WtZRCADZCHpEXOFQ9363LnBLe4pYR/Aa3dp2bGnbgC1tGwAAEn4EpoTlYoIkBxNCJ2FG5DzGCYm7ypduGPE1R5W1KJRtwvmJYx8hScYPfVJjYMDQj1pFBXa0FeJgz04o9H2jvhfXPwA3TPg7okRxNs9RGdX4pHYN5LpWyHWteK3sKfzf1EcxJ3KO3XvPj5oLxYS/45Oal9BvZc7viXj+AqSH5ODunOXICc0Z8dfB9+dhgjgFE8QpkOv70aBqwTppIdKCEzArbAo4VFSMC71ZhwLpBhTINuJwfznrOG5BZRpEQes6FLSuQ7woGeclXoaLk5ciTBDBOprPe6vyWQg4ApzvQXMwvVW7Ssq0/e0dm/EERjfkfTx0qNl+f7xZv6EXuzoLsauzEACQIZ6EhbHnYH7MYqSFTGCcjriL31p/Rt1AxaiuLZBuoALXw1DVME56dHL8It2Eyt4iDBi60KlpgdY09gUmskNzcUHCJXbP+bLhfziiOHD8z+3qBrxV/izumfo45kXZf9J5SeJFaFe3Yv3R96E366yeE8KPwKKEJbgr+x4EOKHHNSxAgtkBEkwPnYTq/jo8XrQcV6RciZlRC6j3zEX69XLkSzcgX7YOUpXjPfa+pk3Tgk/r3samlm9xafI1VOi6gZfKHkcAV4BFcRewjkIIcQMNyho0KGvwad3bmBt1FhbEno0FsWdDzJewjkYYKpRuHPW1ZX0HsK9zB+bFLHJiIuJKnKeeeuop1iG8WYemB/+r/xzf1n8M85AOOWHTIA6IgMFsgnHIAP0YVlEM5oVhRd6ziBbanrO6q3MXvqlfg0HjyatZqo39qFFUIjE4A/GB9hdsmCSZjEZVG2SDdcOOhQsScFv2fbgx8zanF58cPw5ihVHIl23Ct0c/Qqe6HbGiBITSfEin6VDL8MPR/+KNimewu7PQpaueehOtSY2yviJsbdsMvUmHhKAUCGkLrBGp6CtBWZ9zhm3ubi9EpmQKEoKSnXI/MnLO/PscrZuz/sG0fXsKZBvRqW1jHcPntKqbsa9rG/Kl69GmagXHn4P4wCTWscg4O9C1C1/Uj20hOpPZhLPi6UGqp6AC10U6tT34vP4zfN/wCTh+Ftwy8a+4Kv0GTAmfjtlR83BJ8l8wI3IBYgPToDcPQW/WQm/WjKiNxQmX4/KUq2weV+j78VrZM2hTN1g9rjb247CiCumSycdXObaG589FXGAyahSVJw1VTgjKxMq8VVg4wida+7v3492q1/FmxVMABJgSPtXu+XqLHvs6tuCoshbFPXuhNPQD8KOVFMfg6EAdvq7/GG9UPIOS3r3QmNSsI3kkKnRHz5kFkQXA/q5tyA6dTu8LjFCBax8VuGzpzFrUD1Tjt9afUKeoQQAnAEnBaaxjkXHyyeG30aKy/lnYUVLVUeRGzkO0MNZJqYgrUYHrZH16Bb5s+ALf1H8Inh9we/Y/8Je06xBppYAME4QjJ2wqLkq6FDnhM8HnBGHQOAidWYshi8luO6EBMViZ+xSC+WKb5/yv4b842FUAk517DRoVaFQ2Y0pYLiQBtofvRAjCwOOKUSsvhc6swZTwBfjXzOeROYL5LY3KBrxT9To2NX+Bhv4ymIYMkBsUmBKWh9CAMJvXWSxmFHcXQW0agMqoREVfMZqVjeBxAhAbmACeP9/hDL5Ob9bhi7o1WH1oBQ73l8M4ZGAdySucWOjCAkwOs7+IG3F+QWQcMuJg915MiZiBSIHtB3bENajAtY8KXPfRpm7G9vZfUdVbBi6Hi1RxJutIxIWq5KWj3pLuVBxwMS/mLKfci7gWFbhOojFpsb55PT6rfRdGsxq3Zt+NpWk3IEIQ6dD1UcIozImej/MSlyBcGI9ebS9UxgEMWcxWzz838Qqcl3ixzfuVy8vxTf37UDiwKrNc1wGpugMLYheBb6dYzBRnoEndiRB+KP4943mrRbs1piEjvmv8Bu9UPo/DiiJoTthmZkDfAwsEmBs93+b1EYIoFHXvRccJK/n26btR2nsAdYpqJAelIczB77Mv29O5Da+UPolt7T+zjuK1tCY1Snr24lD3AYQEhCExKIV1JLflioJIZ9agvKcIuRFzIAmgqQzjiQpc+6jAdT8dWhl2dRSitLsI/v7+SA/JYh2JuMAXdWtRP1DtlHs1KutwZuz5kNjplCHugQpcJ9jVtQ9rql9Hm+oors28ETdl/Q1RdubF2sPnBGCiJBuXplyFhOAs9On6oTUpYRjSHz8nVBCNldOfQRAv2OZ93q16AzXyAzaPn0qh78KAUWe30ASAhTELcX7iJRBwHVtMqkpRhVfLV2OL7DsMGuVWz1GbBpEpmYYooe0i1c/Pgt0dW056zThkQJu6BUXde6A2qhAXmIRAXpBDuXxJj7YLH9a8ifdrXkKfvot1HJ/QrevAtrZf0KPtQVJQCi1uYoWrCqJBoxKVfaWYFTUfwfwQp9+fWEcFrn1U4Lqvbl079nT+hqLOPeD4c5ERMpF1JOIkzcoGvFHxFCywOOV+Flgg5ARixmkWaCXs+bMO4Okq5GX47PCbmBmRhxfnvYN50c5bYe2s2LPw5sIPcOfkFUgWTzr++pyoxYgW2Z4DsLNjFxpGuMWL3qzFrvaf8bN006jznur7xm/wXPHDKO3ZZnMFZgBoUx3Fzo6tdu8VLohCEM/6h9VubTs+P/IuXi59Evs6d9Cw2xNsblmHh/bcgk0tX7GO4pM2S7/D/btvwncNn7GO4lOaBo9gdckjkOtGvwUbIcS31A6U4+Wyx/HsweVo6D/MOg5xggLZRphtjIQc9T1b10Ou63XqPYnzUYE7SkrDAH5u+QGvlD4BgX8Arsu8FRw/jtVzD/QUQa633nvpiCVJl+PN+R/hmsx7IOKF4crUa+ye/0vLj+jRykbcTr++G981fIzq/prRRv3jPgq8VPocvqh7C70O5jjUvRttKttPtyeFTkNyUIb9e/TuxupDK/F+1atoU7XYPdfbNSnr8ezB5Xi1/F/o0LSyjuPTBgwKvF/zMh7YdQv2de5gHcdnHO4vx+qSFbSAGiFkRHZ0/IoH9tyML498aHOaGHF/vdpu5MvWOf2+Cn0fCmXO6wwirkFDlEehob8Wb1esxmbpD5DruzE7ejHmxZxh9dwV++/HT02fY3vHFhT3HES/QYUhWBApjIAf/Bxuk88JwIzImViWeRvC7GyTs7NjF7a0roPGpBzx1wUASoMcCp0K5yScP6rr6/pr8XLZ0yjt3QGtSeXwdUMWIyJFSZgoybZ6nOvPhVTViBpFmd37mIYMqO2vRE1fBcKFUT65bciO9nw8f+hRHB5hLz5xrWPDlv3BwdSImazjMDceQ1o7tW1oGjiKRfEXwN+Pnue6Eg1Rto+GKHsWk8WE0t79ONRThFBBuE9+lvB065u+wv6u7S65d5+uGxcnL7XZsUXYowJ3BLQmDba0/oQPa15HteLQ8aGwS1KvwwQrczb0QwZ80/AJerStUBr60KpqQGXffhT37MO2tm1QmjTw9+ciUhDhtIzvH34H9f0lY7qH0tALET8cWZKRzUMp6inCmxWr0DBQCvNpVoE+ld6sg9nCxXkJF9o8R8AV4lepY0/j+vTd2Ne1DQaTHonBqRBxA0eUx1N9Ufc+3qp8FlrqtXJbZX1FaBpoQJZkkk/PER2vgqhV3YzWwRacGT+6h3bEMVTg2kcFrmfq0XVga9vP6NcpkCqeQOt8eAitSYO3Kp6F0tjvkvsPGBSIEsZhgmTS6U8mTHBZB/AU7Wopvj/6X2xp3QTNCT2TgVwxEm082WsdlMJs1p/0ms6sRae6GZ3qZjQryxEhTEBScDYWxp2NhdELIXJw8SZryuTl6FAfHfX1xwwa+7G+8Qvkhc9EQpBje0ru7NiJ92teRpe6adTt9una0aRsRKrY+t50/n4cxIoS0aFxbNiz1qTBF/VrUNKzH/dMfRRZksmjzubu5LpevFf1Era1/8I6CnHArs4CNA7W4W+TlmNB7GLWcbze9o7NCCgV4uHcZ1hHIYR4oI0tX6GkZy/+OvkhLIw9h3UcchqFso1oVTe7tI0C6QZckrzUpW2Q0aMxWw6oVpTjrfLV2Nj81UnFLQDwOCJE29hzsV3XiUE7T490Zi1aVfXY27ER/6l4Csv33o0fm36EQq8YVc79nXshGzwyqmtP1aNtcbi43dGxAx/UvDKm4hYA5Lp21A7Yzp8dOgUJopQR3/dwfxmeK16OzdJ1dhe78lSlvUV4dP/dVNx6mDZ1C548eC++qHufdRSfkC/7EW9XrGYdgxDiodo0LXjq4P34tPZd1lHIaeRLN7i8jWrFIexs33L6EwkTVODaYRwy4lfpOrxY8giKe3dbPYfnz0Owje16erXdUDk4PEJl7MeR/mL8t+51PHbgAaxvXg/9kP70F57gt7afRnS+PSniHKgdHOb6RvnT6FQ3jrlNpUGB8t6DNo/7wQ85EXmjuneHRob3ql7E2po30KP1nq1yNjZ9g8f23YWjylrWUcgofVr3Np4ueggd6pEvDEdGZkPzl/ig+jXWMQghHuyLI+/hXwfug3Rw7J97iPP91voz6gYqx6WtwnEopMnoUIFrQ79ege8aPsO7VS+i3c6Q2CBeCIQ86/M76xRVI2530KBAfX8JPqt9BY8fWI7dnXscvvav2fciQuhYr6s9kcIk3J59LwIdnLc6PXzumNs8pnGgFoYho83jM6Ps79Nrj8akwvqmL/DiocfRpKwf9X3cxftVr+KtymdhtNj+fhHPsKuzAI8fuAdV8lLWUbzet0c/xue1a1jHIIR4sH1dW7Fy313Y1raZdRRyinzpxnFra1/3NpT2sl17gFhHBa4VHepWvF/9Kj6ufeO0KwGLOEE2V0PWmDSjzjBo6EdZzzasqX4B79W8B7nu9MOWz0+4EPdPexLRoxjGe0wwT4JLU5chNzzX4WvOT74UkaKEUbd5IpWpH0eVDTaPCzlCRI2xrbK+/Xi59N8o7tk7pvuwtKp4Bb5r/IR1DOJEUtVR/PvAvdhzmj2hydh9fuQdfNvwKesYhBAP1qPrwKqSh7G25g3WUcgf9nftwqFexzuGnKFQSlsGuSMqcE/RrGzAfypfRGHreofOjxLF2jym0I99I+hOdRM2NH6I/9Z/5ND586Lm476pTyBqlEXupLA5uD7jphFdMy9qHsICbH8fRmJA34U2je2VJpOC0xAjSBxzO0cGKvFm+bPY27l9zPcabw/suoXm23oppbEfTx68D1tkzptuQKz7oOYVbGj6mnUMQoiH+6bhQ/zrwH0YMLhmxV7iOBZDhgta1+FoP00TczdU4J6gvr8Gb5Y/h33d2xy+hsfh2zymMo5usahTcfz8MClsmsPnz4mai/unPoFoUeqI2okLTMOyrNtHGg8AcE7ipQjgjH4F6GP0Zh0a+u0PH04Vp4+5HeD3eblrql72mCFGA4Z+3FB4AaoUY9sGiri/F0ofwU/N37GO4fXernwO+VLHHmYSQogt+7q24pG9d0E2OLbFNsnoVclLsaPjVyZtF7RSL667oQL3DyU9+/Bi6eOoVBSP6Dq+n/UCV2fWw89J315JQDQyxRkjumZO1Fz8fcoKRAod6+0M4AhwbtJS5IxyK515kXNHXFDb0qFusXt8RpTz5vy2a1rwWvmT2Nvp+EMNFmSDTbgm/0x00T6KPuONiqfxw9H/so7h9V4uewLb29h8KCKEeI96ZTUe3HMLKuWHWEfxSQXjOPf2VPmydejSdDBrnwxHBS6Aou7deKP8aTQPjnzhIQ6HY/V1vVkHfz/rx0ZKxA1BSvDIi8eF0Wfgxqy7IeaHnfbcxKCJWJZ+/WjiAQBiA+OQHuKcDa9bVfZXJowXJULEtb5y9WhoTRp81/CZ2745VcoP4bZtl8JsGWIdhYyz96pfxP+OrGUdw+utKlmO/V07WccghHi4foMcD+6+GbtpLYVx1axsQL7sB2btq4xKFMqoF9ed+HyBe6BrF96uWIUOTeuorve38S00D5ltLj41UqkhE0d97SVJl+PazL8jkBdi85xIYTyun3AXeP68UbcDAAtjFyPITjuOUpvVaFPb7qnk+nMRxAsdczsnqpQXo7T3gFPv6Qzdmk48uPtm1jEIQ5/UvokCGbsn077AAmBV8XJaDZMQ4hRPHbwPv7SwK7h8TYFsI/NOgALZOmgc3F6TuJ5PF7hFXbvwTuVqdNjZBuh0bBaxzqltEcARIjt0it1z9GaD3ePXpi/DWXGX2zw+QZKLM2PPsHuPVytex8p999o9Z3bUXIj5kXbPsSeAI0C0KAXzos9GfKDt7Y7ig5Ih5klG3Y4tBzp3YsiNeklVxkFcv+Vc1jGIG3ip9DHaQsjFtGYNVhWvQI2ignUUQogXeK38SXx1xLEFQsno9Wq7kC9bxzoG2jUy6sV1Iz5b4H579Eu8VPbvMRW3AGCB9YKI6+cPCyxjujcAhPAjkBBkex7to0WP4YHdd0BpGLB7n3unPITssNnDXg8TxOIvpxmaXN1/GDXyfWhXN0Ous70ytJAjQE74LLv3sobnL0CyeBKWpt+F1xd8jPun/PO010TbKYBHq0vbAaWbrII4ZDHj3p2jHzJOvM8Du29C48AR1jG8Wr+hF8+XrEATfZ8JIU7wUe3rVPS4WIFsEwYMzlnUdawKGKziTKzjsg4w3pQGFV4tXw21sR+zoxZDIghHYlAKBBwB+Bw+OODCzx+wWCwwDZlhGDJAOtgEpUEBrUkD6eBRqE2DUBkHoDUOwmwxW22H5893SoEr4AYhOTDZ5nGtUYH6gVK8VfEy/jn9MQi5Iqvncf25eGjqE1i5/y7IdX/ONc0Jn4NpYVPtZiiQ/oxudTNMliGUystwTpztXsX5MYuwrfVHGIf0p/nKgAB/AaIDU3FJyjW4NOky8DkBp73mmEihc7YlOpHRoofOrHX6fUfjmYPLIVPTaozkZPfvvgFrz1qHmEDn7DtNhuvQtGLVoZV4ZvabiAtMYh2HEOLhXix9FLGBicgJm846itfRmjTIl7nPSvh1A5XY2voLzk64mHUUn+dTBa7ebMC71a/DYFLi2dmv2CwGT8disUBp7IdUJcMUG8Uh15/nlFHKHD8eooTWh/3K9QoMGvoAAHs6f4X4cAjum/KwzXulitNwc9Y9eLfyGRiH9AjhR+Dy1Gvstn+g5yAqendDa9YAAHa25tstcHMj8hAmiEWXptnufROCJuKi5KVYknQpAnlBds+1JinYOVsFncQCp618PRZvla/C7s5C1jGIG9KatXiueCVWz3sXYr7zh+mT3zUP1mN18SN4Zs5bCBNEsI5DCPFwD+y+EWvPWodUcSbrKF6lQLYRbepm1jFOUijdRAWuG2D/aX4cfVr/CRS6TizPfXLUxS0A+Pn5IYQfarO4BQCePw98f8d7JG2JEdnuQejUdkJl/H1IrXFIh99k6/Bj0zd277ck+XLMjDobAJAcPMlu761hyIhtbQWQqRqOv9Y0eASddlYbDuSKECtKsXk8NCAa12T8H15fsBbXpi8bVXELYNTX2RMXmAQRN9Dp9x2JtTVvYGPLV0wzEPdWO1COlw49AeOQkXUUr1Y7UIFVxSuhNqpYRyGEeIGH9tzqtrs1eCp3HBJ8sHcXDnbvYR3D5/lMD+665vU41LkNK3KfRrhg9AshjcRjec/g26PfoKx3H3q0rTAO6UZ8D3s9lb26Hljw5xBptUmJr+rXIikoFTMjh8+3Pea2iXejsq8I5yVdarftA91FOKI4eT+3Hm0b6gZqESOyPUR4TswZKOvdftJrPP8ATI84AzdP/BuyJWPfTiiAI0SsKBkdGvt75o5EYlAKgvlip0A1AnAAACAASURBVN1vpL5v+BzfNHzIrP3x5g9/pIknIjU4A6niTCSLMyEOCIHQXwgBVwgB589fdWYd9Cbt77+aNdCaddCZtWhWNqBZ2YAmZT2aBo9AbRpk/WWNi/3d2/F62dNYkfcc6yherVx+AM+XPIKnZr8Brr/P/LgkXmh6+BzcNPHv496u3qyDzqSDzqz54/da6M06dKhb0aH5/b8enW8UfYPGAbx46DE8PftNpp81vMVvrT+jbqCSdQyrCqQbMStqAesYPs0nfmIf7D2E32Trcceke5EekjVu7SYEpeChaSuhMqqwr3svCqU/oUVViz5tu8P3iAmMsXlMoVdArus6+TVdJz46/DZSg1+zWcinidOx/qIddtvVmw3Y1bEV0sG6k143Dumwv3MnFsUutnnt5LApEPHE0BiVAIBwYTyuTr8DV6XZHw7tqF6dHHUD9RiyscDXaMQFJuKMuPOcdr+RKunZjzU1LzFrfzyEB0QhL2IupkfOQXboFCQFpzl8rYAjgIAjwKmbUE0Ln3nSn7s1nahXHkZZzwGU9h4Y1d7WnqKgdT3SxBNwVQZtI+VK+7u34/mSR/CvWa+wjkLImJz6fukuTEMmdGpa0aJq8vr37gr5Qbxc+i88Ofs1cPw4rON4tHyp+26ft639Z/yl/0ZkS+zvgkJcx+sL3HZNF74+8hHOib8Asxk9TQniBeG8+PNxXvz5qJCXI1/6M8r79qNT3Xia60IgCQizebxX22P19fr+Uvy3/hM8MGXFqDMX95agod/6tiRHB2qhMioRxLP+BDJLnIUgXhjMQwZkhOThrpz7MUkyedRZAKBB2YhqRRVKe4vQpWqBzqxC1xhXwD7RJUlXI2uMGUdLoZfjg2rv/PA8J3IRpkbMxNSImafd7soZokQxiBLFYEHM7w9gZINNqOgrQXnvQezv3gGNybuGm66peQmpIRMwI3Iu6yhebUfHrwg4JMSKvGdZRyHE63D9uUgISkFCUIrV9+7inj1QGt1jhwNn2Nv1G96ueB4PTHuCdRSPtb9rJw71uvcw4ELpJipwGfLqAldr0mFtzTtIDkrClWnLhh03DhmhNxuhMamhMWtgMBtgsphggQV+8AMPXARw+BBxgxDED4JgBKv82jI1bBqmhk1Dy2AzNkt/wq6OfHRprK+WK+SKEcI/tc/qTx1qqc1jO9t+wayoBVgQPfKi3mwx42DPAUgHrW+V0W/oQbOqGTmh1ufvcvw5gB8Xs6MvxMrcxyHgCEecAQA6Nd0o7j2I3R1b0alugNIgh9IFS8FfnHQNzoq/yOn3ddTa6tdwVFnLrH1nSw2egDNiz8OC2LPHdcSENYnBqUgMTsUlKVehV9uN3R2/YXfHFpT1HWCay5k+qH4FL8z7AKF2HoaRsStoXQcBR4D7pj3OOgohXu/E9+5BgxIHu3ejqGsPirp3eEWx+1PL10gOTsWVaTewjuKRCt1w7u2pCmQ/YmnaDYgPsr0TCnEdry5wv2v6DipDHx6cunzYsUeLHoZc2wGzxQiLZQgqYz/8/Pzgd8LaxxZYYLFYEMKPgMligpAThDBBFBKCUxEfmIi4wDikBaVCEjDy1UyTg1Nw9+R7sCTlMnx55HMc7N4Ghf7k4cZDFhPEvGCb9+jTdds8pjT04ova9zE1bCqC7dzDmsP9dajptV0AyHWdaFXJbBa4APDlOaNftr2krwy72n9Ddd9B9OnaXFLUHnNGzHm4IvVaRNuZU+xK3zd8joJW91nifiwuSPgLFsSdjfkxZ7GOYlWEMApXpC3DFWnLUK0ow+72rdjW9gt6dZ2so43JUWUt1la/RvNxx8HGlq8QwBXirskPsY5CiM8I5otxdsLFODvh4uPF7va2X7G3ayvraGPybtXzSAxKxcyo+ayjeJQqeSl2dOSzjnFaOrMOhbJNuDX7HtZRfJLXFrgtg034oWENHst7AeJTekFlqhbUK0rQr7ddIJ6o79QFEDoBAUeIYH4ERDwxlk97HNl2ij17EgKTsCL3CdT2L8XHh/+Dyr69x/eQ5fjzIOTYXu054DQr/jaravBVwxf4W/bJC0uYLGboTDrozQYYhowwWcwwW/6cz7q3az+6tbZ7hwGgou8QLky85HRfnsOGLBbs7d6H7W1b0DhQZrP32JmyJdPx18kPMtvr0lvm3S5Jvg6XJC9FpiSbdRSHTQ6djsmh03Ftxq3Il27AZumPaPXgfYdpPu74+e7oxxByhLiZwYI9hPi6E4vd/V078Uvz9x5d6L5X9RKen7sGUSLb662QkxW48dzbU+XLNuAv6TfStn4MeGWBa7aYUSDbAI4fz+q8SjFPDO4Yt/DRmbXQaWWAFvjm6Hd4auboCtxjJkqy8dK8t7FZ9hM+PfwW+nTtCOKGgOfPt3q+acgE02m2CTGaddjRvhmTwnLB5QRAaVBh0KiGccgEEVeAAA4fPH8euH4c+Pv5w8/PDxaLBRNDcyDyuxk92u7jvcQdWhmUhgEo9L/P+21Xt2LIMgR/v7HvNFUqL8fmlk04OlCGlnEaqjs5NA/Lpz/NrLj1hnm3nljYnkoSEIZrM2/DZanXIl+6Hr9K16NBWcM61qjQfNzx8/mRdxHAEeDazNtYRyHEZ82NPhNzo8/06EK3RdWANVUv4d+zX2MdxSM0Kxvwq+wH1jEc1qPrQKFsE5am38Q6is/xygK3qGs3CmW/P+HpN/QPW6hJyBVBzJOgV+ucRYrkuk4MGtUI5lnvUW3oP4IMyQSH7nVR4hLMCJ+Fd6peQW1/JSywWD3v915Xs9VjABArSkBSYDqC+GIIuCJIeGKkByUjmBfo2Fzi6D+3GTIMGaA2DmLQMIAubQeO9FfD4h+Mr5o2IVoYjmhhJGIFUYgQhDr0NR7Tp+/Hz9KfsLf9F7SpG6EdpwWAckJn4IFpTyAxOHVc2rPm48Nve+y823PjL8fS9Bs9urA9lZArwhVp1+Oy1OuwsekbfFn/AeR664u4ubMPq99AzhmfIoAjYB3F6609/CoCOAJcYWV9B0LI+DlW6G5r24yv6z/yuJ+tOzsL8Onhd2goqwPyZRsxZHHeDhrjoUC2AVem3eCUDiHiOK8rcDvVrdjQ+BXkfww/lusVSDllCiqfE+DU5dlVxj5I1TJMlkwcdmxL2xa8W7kKeRELcEnKlciLmHHa+0WJovHM7JftnmOxDC98J4hzkCmZjIVxZyMlOA0RwpiT5hSPFt+fD35AOEIDwpEUnHZ8by+zZQjd2l506npwoLcMxiETEgJjkBwYh0hBuN177u8pwsam71Ar3+/SObanygmdgXumPIoUcea4tXmqfZ07sFn6HbP2R2tK6ExclXnL8VUuvZG/nz+uSFuGWVHz8eWRj5Df+iPrSCNSr6zCdw2f4casu1hH8QnvVK2CgCvAhUlXso5CiM9bHH8R5kSfiW/rP8GX9R84dStBV/uifg0Sg1NxToLzpn55mx5tFwpk61jHGLGjyloUyjbhgqTLWUfxKV5X4P4s/RHFvbuP/7lP12f1vBRxJuoHypzSZr+uB43KRqsFbnpwBsR8MXa0r0eVvAjZoXm4LPUq5EWMcT86P8BkMSKEH4GpYXmYFjEDi+MvRkjAyHpRx4Lj549YURRiRVHIDZuMAcMgpJp2HOyrgMViQUpQIjKCkxBwQo+x1qzHppZN2Cr7EQ0DFeOWFQCmhM3C9RP+igwrf0/j6Zv6j5m2P1JRwlhcnX6rT632GB+UjIfznsHM6Hn48shaNI3DnHBn+bphLebFLEJ6CNt/577ilbJ/IYAjxOL4C1lHIcTnibiBuDX7HsyOORPfHvkYu7u2sI7ksC/q1iAvci5CA+x3EPiqQtlGDIxjh4gzFcg2UoE7zryqv7xaUY5fpSc/3TnSX2313KTgFKe1qzQqcFheafVYqjgFYl4UAKBP147dHT/hueLlWFXyLzQM1I2qvU5tD/b1lCI1OBOP5K3GYzNfxBVpN4xrcWtNCD8YUyRZuDh+MWZHTIPKpMb3Lb/iQG8ZFAYlurS9WFOzBpsaPxn34jZaFI+7cv6JWYxXK/yu4TNUKUqYZhiJ+dFn45X5H/tUcXuixfEX4bUFn+KKFM/5+nVmHb6p/5R1DJ+yqmQ59nXuYB2DEPKHSaFT8dScN3DHxAdZR3GYTN2Erz3sAfh40Zo0yJd57o4T5X0HsLdzO+sYPsVrClylYQBf1n1wfBGkY1oGj1o9f6IkB4FcsdPab1MdhdJofQ5pXtTJi74oDb3Y1rYOzxSvwNcN/4XOrHWoDYV+ALu6i3CwrwIpgXF4aOrDmBU1Hzx/3pjzO1ukIBxzIqbjquSLIOIKsa1jL96ufAW72r5Hh6ZlXLNEi+KxfPozmCjJGdd2T9WqasbXDR8yzTAS12bciWfmvIW4wETWUZgK5otxz9RHsSJ3NcICIlnHccjW9p+wve1X1jF8yqqS5ThkZ3s1Qsj4WzbhDrw4by0miNn+/HfUD42fobhnH+sYbqdAthFt6vH97OhshR60+rM38JoCd2/nNhzoHv4EvUfbbnW14eSgZAj5zitw+/WdqFc2WD02NTwXcYFpw15vVx/FZ7VvYMXef6BGYb2nGfh9VehD8ips6diDCH4YLk04B2nBnrFxdACHjymSLFyZfAEuS1mCiSFjW216pKJF8bgt6x7kRswZ13at+abhM48YXhPEFePh6avw10kPsI7iVs5PvAwvzVuLeVFns47ikG/qP4XerGMdw2fozFqsLn4Y1Ypy1lEIISeYETkPL87/AEuSr2UdxSFfH/GcB+HjpUC6gXWEMdvVWYBK+SHWMXyGVxS4HepW5EutD11QmQbQo+0a9nqYIAIRAdFOy9Cn68BhxWGrx6aFT0MQL8zqMeOQHjWKg3imeDm+Pfol1MbBk443q9qwSfYbTENmXJZ4LrIlGU7LPJ784IfZUQvx+MwX8UjeC8gch6ep0aJ4PDTtKZybeKnL2zodT1lYKjU4E8/PW0NzRWxIEWfg2blv4dase1lHOa1jC06R8dNvkGN18Qo0jnL6CSHENYL5Yjww7V8e8d5d1neA3rtP8FvrT6gbsD4N0NMUSjexjuAzvKLA3dleiEp5sdVjCl0XGgebrB7LDp3mtAw6sxbF3busbt3D9ePgzPgLEMAR2ry+VyvDJ4dfw1PFj6NT0wG92YC9PSU4PFCPuZG5mB0xDQEc63viepJAXhDOTViCp2e/hhsz70aoi4Z8xori8eDUJzEjcp5L7j9SnrCwVGpwJv418xVkh45vL7snujHrLo/4oPR1w1ocHfCsLTM8XZe2DasOrUSbyrOH0xHijTzlvfvL+g/QYmNUoK/J96KiMF/2I/29jhOPL3BblA0obLX/j39/506rr8+KWuDUebhKfSeKeoqsHsuNmIkIQZzd641DOpT2bMUj+/+BTxu+hJArxEXxZyFG6Bnz/kYiShSHW7Pvwcq8VZgcmufUe0eL4nFdxl8xk/GCUsf8Kl3n9gtLpQZn4t0zv0ZScDrrKB7DEz4o6cw6/NLiedsqeLqWwQasLnkEfTrP20uZEG93Y9ZduCfnMdYx7Bo0DuCr+k9Yx2Buf9dOHOrdwzqG05gtZhTIvKdgd2ceX+AWtv6M5tNs4VGtOAQLhu8bO1EyEWHCWKdl6dbIUCOvsXosKyQTk8JmnfYeoQGRyI2Yg8sSL0Zu6CSnZXNXMyPn4/EZL+CipKsg5IrGfL9oUTz+Oe1pXJJylRPSOccvze69l2pqcCbWLl4H/gnbORHH3Jh1Fx7Je4F1DLvyZT+gVdXMOobPqRuoxKrilVCdMu2EEMLeFWnX47k5/2Edw64tbRt8fsEpb5h7e6p82QZ6+DkOPLrAbRw4gp3tp18ptEfbjhYrw5TF/BCn9h7qzFqUdO+CwcqiVgBwbtLFCLfTixsrisc/pz+F+6c+glhRlNNyubsoURzunfIY7pj4ACRj2P9tcmgeHp7+LPIi557+5HGypfUn1PSXso5hU07oDKxdTD18Y3FuwhK8Mt99n7TrzDrke+GHBE9QIS/C88WPWF3okBDC1tzoM7F67hrWMezaIv2JdQRmKuWl2NmRzzqG0/UbelFIvbgu59EF7vqmr9CukZ32PK1pEPu6dls9tjBusVOHKfdopTjQY32riBnheZggsV5Q54TNwMO5qzE3epHTsngSPoePK9Kux4rcVUgOHvlCWjlhM3HPlEcwPWK2C9KN3uZm9y0eU4Mz8cYZtJCFM0yPmIWnZ73NOoZNv8rWo0/XyzqGTzrQswOrSx5hHYMQYsXsqIVYkbuadQybtrRtQEO/9QVMvZ03b6tTINsAg1nPOoZX89gCt1nZgMP9jm/HsLdjm9XXp4ZNQ7TIeVvuKPTd2Nn2m83jF6Vcjkhh/EmvTQrNxcPTn8HU8BlOy+GpZkctxKO5zyM33PFe2JzQGbh3yqPIlLjXkO4d7YUol7vnvpgRghi8tuBT1jG8yoLYxbh3yhOsY1il0Pd45VAvT7GzIx8vHXLPfxuE+LrzEy/DzRP+j3UMmwpbfa8Xt1lZj19lP7CO4TJS1VHqxXUxjy1wt7ZtRpPS/tzbE7UM1qK+f/hqoiJuIM5JvAQB/gKnZTvSX4rqfuv72s6PmofE4InH/zxJMh3/nvkK4oM8Y1/b8ZAhycaKvFW4ccLddocsC7lCnBFzHm7IugvpIVnjmNAxv7a459xbIUeE52a/jWB+COsoXufy1OtwdfptrGNYlS9bB61JwzqGzypoXY83y59jHYMQYsXNE/+Oc+Pdc3u8Atl6dGs6WccYV/myjRiyDLGO4VIFMu/toXYHHlngtqulqJaPbF6jxjSITTZWEz077jyEn9KrOhZtqgb81lpo8/jSjBsRKUzEpNBc3Dn5QUQInbcfr7eIFEbj1on34OV5H+LqtNuQF7EAqeIJSBVPwKzIM3Bh4lI8N2cN/pn7NGa5yWrJJ9rbuR0He3axjmHVyrwXkCHJZh3Da901+Z84I+Z81jGGaVU301xcxja1fI01Va+yjkEIseLunOXIFE9mHWOYQeMAtvhQL26PtgsFsvWsY7hcteIQdrbbrhXI2HBZBxiN0t4ilPdZ347HnkO9e6E0DEB8Ss9VpDAaC+MuwLf1w1fUC+KFQMgVw4Ih4IS1mM1DQ+D5c2CyGKHQdQ+7rrhrC+oSL0FWSOawY9nibCSF5OHOCTchUzJx2HHyp1RxJu7K+SfURhVUxgFYLBYIeUEI4UtYR7PLXXtv75j4IBbGns06hte7Y9J9qBuoRLe2g3WUk+RL1+OKtGWsY/i07xs/gYArwK0T3XdIJCG+SBIQirtyluPRfX+D0eJeC8MVyjZgafqNCOA4b7ShuyqUbcSAQcE6xrgolG7EmXHnsY7hlTyuwB3QK7CrbXRPPDrVTfhZugHLMm4eduyy5CuhN/Zj0KiDkCvCBMkkBPKCIOIKIeAKwfcPAM+fC3/4wwKgRy+HiCuEwayHzqSHxqxBw8ARDOrl6NS0o1XdiJ9l+cMKXMOQEbu7D+L2rDuRGZI6qq/DFwXyghDIC2IdwyHSwUbs7drKOsYw5yVcgWUT7mAdwyckBKXgzuwHsfrQCtZRTlKvrMauji04I/Zc1lF82hdH3oOAI8R1mbezjkIIOcH0iFm4O2cl3q50r+kEMnUTCmWbsCTlatZRXEpr0iDfB3pvj9nXvQ2Heg8gL2IO6yhex+MK3Nr+StSMYHGpE0kCIqGx8VQoRhSLe6c6vvF3GtKHvXZe/J8fGi2WISiN6mHn7O0uQVxgNLKouPVa+7t2so4wTFbIFNyds5x1DJ9ydsLFqOuvxg+N7rVS9a62Qipw3cCHh1+DgCPAFWnXs45CCDnB5anXoVnZgE0tX7OOcpKd7Vu8vsAtkG1Em7qFdYxxVSjdRAWuC3jUHFwLLCiQboTGpHLo/EBeCOICM7Ag5mI8MP05vDr/E9wx6X4Xp/ydn58/QvjBJ71WIq8C15+L6aHutdovca79nTtYRziJgCPE3VMedvth3d7ojkn3Y0roTNYxTrK9YzNaVc2sYxAA71StxmY3nc5AiC+7deL/ISHQvToiDvXuQW1/FesYLuWL60QUtq732a2gXMmjClzZYBPqB07/P3e4IAELYi/Gw7kvYs2Z/8PTs1/CkqQrkByc4vqQNjSrWtGh6cbcyFxmGYjr1fZXoUJ+kHWMk9w04R+YEmZ9/2XiWnx/Pm7O/gfrGCcZsgxhV7vtrczI+Hq1/N/Y2raZdQxCyAlCAkJxVfrw6Wys2dry0htsaf0JRwYqWcdgooC2DHI6jypwK+WlaNe0Wj3G8w9AijgHt2Uvx1sLP8PTs17CwpiFEPECxznlcBqTFgd7KzA7fBq4fhzWcYgLuVvvbVbIVCxNv4l1DJ+WGzEb12bcyTrGSXa2F7COQE6wuuRh7O3czjoGIeQES1KuxsyIBaxjnGRPh/c+nPTlvdoLZOvRpWljHcOreEyBqzVpcKh737DXA7liZIin4f7pz2HNmf/FDZm3IlrkvG13zBYzVEYV5Do5ujXd6NR0oVvTDYVOAY2De0qWyKswUZKOKKHtPV2Jd9jf6V7zb6/OuBlcf4+bau91rs+8E+li91kxvV5ZjX1uOFfcl60qXo6Snv2sYxBCTrDUyqKkLLWoGrCn0/t6cfd37cSh3uGf8X2FyqREocx3toIaDx7zybdN1YIKecnxP/P8BZggycXSjBtxZswil7R5TeElCOQK4O/3++rJ/vAD4AfAgiFYYIYZsFjg58dFYlAqhFwhMkKyEcKXQGlQYGHMImjMBqhNWpwRNcslGYn7KO0tQoOymnWM4xbFXoiz4i9kHYPg91XAr5/wVzxb/E/WUY7b1VaIedFnso5B/qAf0mF1ycN4ZvbbmBw2nXUcQgiAWVELcHHS1fhF+h3rKMftad+KBTGLWcdwKl/uvT2mQLYef0m70S1GnnoDjylwS3uLoND3AAASgjLwl7RbcEnypeD4jexLaFO3o15ZD5lKilp5BRbEnoGLky6zeu7Z8UuQL/0fBg39p71vi/L3eQOFAAI4AgTyJPix8QuYLUN4fcHHI8pIPJO7DU92tyfPvm5R3AUoTtyHzbLvWUcBAOzs2IxbNHcjWhTPOgr5w4BBgVUlK/Ds7LeQHuI+Pf6E+LILk690rwK3sxB9uvsQLohkHcUpKuWHsLMjn2mGW7Puxad1bzPN0K6RobB1Iy5Ppb3qncEjClytSYMtrZsRKojBmXEX4abM2yEJCHX4+ur+w6iRV6G4Zy/6tV3QmJTo0DQDAKSDtZgRMRvRophh192adTs6Na3Y3T6yJ0t6sw56cycA4Kq02xAj9I43IWJfSc9e1hGOW5J8HSaFTmUdg5zistRr3abA1Zl1KOstxgVJVOC6k25tO1aXrMTTs99CQlAy6ziE+LxJoVOxKPZC7Oj4lXUUAIDapMKejq24LPVa1lGcokDKdoGlNHEWbsy6CxqTGt8eZdshVSClAtdZPGIO7obmH2GwGPHEzFdwb84/HSpuu7U92CTdhCeKVuLNsqfx2eGXUNJViKPKiuPFLQB0aJrwn+rXrN5DwAnArVl/Q6ZkxqhyJwdn4HIveQMi9jUO1KF5sJ51jOMuSV7KOgKxIlOSjSXJ17GOcVydwru3nPBULaqjWF28Er3abtZRCCEAzk28lHWEk5T1HGAdwSmalPXIl/7ANMN1GXcAAJZlsl8Msm6gEr+1/sw6hlfwiAJ3X+dOXJd5K6Y5MC+pbqAeHxz+AI8euAcf17yI/Z0/o1FZBZ1Za/Oaoq7f8M3R/1k9lhKcjDsn34+EoMwR5z47/mLEBiaM+DriearkZawjHLck+TpkSrJZxyA2uNPDh1ofLnCnh8/Bsoy/so5h0xFlFVaVrMSgQck6CiE+b17MIkwLm806xnEV8mKYLWbWMcasQLYRQxhi1n4gNwhnJ1wMAAjmi3FewhXMshxTyLhH21u4fYHbqe2BwaxFXvhMu+fVDRzBf2rexWulT2Jj41q0KKsdmjsLAMYhPb5r+AhVCuv7b80Iz8Ot2Q8gNijd4dxJQem4IPFyh88nnq2q7xDrCMe5UwFFhnOnXtwjykoM6BWsYzBzx6T7camb/F1YUyk/iOdLHoFxyMA6CiE+7zwb67Ww0G+Qo6z3IOsYY9Kj7UK+dB3TDNdlnvyQc1nm7YyS/Km4dzeKunezjuHx3L7ALe0phpgfgkhhrNXjHZourK1di1XFy/Fjw3s4qqyw21trS7++G2+Wr4JCJ7d6/KzYRbhpwj8QH5Th0P3Oib8EEULnbVdE3Ful3D0KXOq99Qzu9BCiRlHBOgJT9097AovjLmYdw6ainp1YXfwI6xiE+Lz5MWchiCtmHeO4yt5i1hHGpEC2EUqjYx1RrnJNxi0n/TkpOA0zIxYySvOnQulG1hE8ntsXuI2qo4gRDR/ma7aYsUn6M54seggbjn6AdnXjmNtqUlbhhbKnYBwyWj1+fsIFuH7C3xEfaL/IjRXFHx/yQLxf40AdenQdrGMAABbFn886AnFApiQbC6LPZR0DAFCjKGcdgblHZjyPWZFnsI5h067OArxY8hjrGIT4NDFfgpmRC1jHOK6ir+T0J7kpjUmNAul6phmWJF9rdSeW67LuYJDmZNvaf8FhG6NKiWPcvsCNEqXhHzkPnfRahbwKz5T8G98e+Q8aleWj6rG1paR7K14vf8Hm8QsSLsB1E+62Oyc3N2I+zb31IeV97vEUdZIkF7kR7jNHiNg3P/Ys1hEAAIflVOBy/Dh4ZMbzyJZMYx3FpsK2jXij/FnWMQjxaTOi5rOOcFyF/KBTP/+Op0LZRrRpWphmuC7jNquvTw+fhTRx1jinGY56ccfGrQvcfoMSAm4AAjj8k15/pWI19rRvQIeL/ufY1rYB71a9YfP4RYkX4v+mPIYo0fAtHIRcEebFLHJJLuKeyt1kmNAZce7RI0gcMy/mLITwHd/uzFVq+317iPIxIXwJHs17HomBvCKZqgAAIABJREFUqayj2PRTyzd4r+oV1jEI8VkzouaC58djHeM4T52Hm9/CtnibHXkmYux0RC3LZL8AYUHrOrSp2D4E8GRuXeDWDTbBYrEMe/369FsQJUx0WbvGIR02Nn+G96rftHnOrMhZ+PfMVzEx9OQes7TgiZgcluuybMT9lPexX66f58fDgtizWccgIyDmSzA/hv1DCZ1Zi4b+WtYx3EJcUBIemfECJPww1lFs+qHxU3x6+B3WMQjxSVHCWMyMZD9H85iyniLWEUZsS+tPOKJkO/z22gn2F5NaHH8hJPyIcUpjnc6sQ76MenFHy60LXIE/H5KA4RP6L0y8AFMjz4CAI3RZ2+YhIzY2fW63yJ0omYjH857DrOiLEMyTAAAWxCyGmB/islzEvfTpejBoZL+Nx8LY8xAX6LqHPsQ15secxToCAKBx8AjrCG4jSzIZj854CRw/DusoNn1RvwZfHfmIdQxCfNL0SPeZClTVV8o6woix7r1NCkrHtNPszAIAN0xwg15c2QYMOLgjDDmZWxe4Sr0c/615FWrj4LBjV6VdiyhRikvbNw7psbHpc6ypftvmObGBcXhm1mpckX4nwgVxSAmZ4NJMxL20q2WsIwAAptPcW480L2YRooRxrGOgRXmUdQS3MiNyLh6b4d5DgT+qfR3rGq3v304IcZ10yUTWEY5rHqxjHWFE9nXtRGnfXqYZrst0bBGpK9NucHGS0+vVdaKQenFHxa0L3FC+CE3KanxR/8mwYxnidFyTeSck/EiXZjAO6bGh6VO8XLba5jk8fx5uyLwJs+OuwERJjkvzEPfiLgVuhoT9gghkdHJC81hHQMvg2Feh9zaL4s7Dg9OeZh3DrnernscvLT+wjkGIT8kJne7SEYQjoRvSoUPdyjqGwwpbNjBtP8A/AOcnOr6f8bIM9+jFHbIMsY7hcdy6wJUNNgEAfpV+jyr58IVQLky4AGfEX44AjsClOYxDevzW+j1er3gRBrPe6jnd2l5MD59Ow5N9TIcbFLjBvBBkSaawjkFGKSd8OusIaFHVs47gli5JXoq/TVrOOoZdr5U/ia2tv7COQYjP4PrzkBkymXWM45oHPWMETqX8EHZ25jPNsCzzbyM6/xobKy2Pp0ZlHQplm1jH8DhuXeAe6x0bNMixpvo1aIzqYefcnnUncsJdv3+haciAn5v/i5X77keXpnPY8S5dL6KE4S7PQdxLmxsUuBnibNYRyBjMdINtJzo0rdCZdaxjuKVrMm7FsoyRfSgab6sPrcCejm2sYxDiM7JDp7KOcFzzYAPrCA4pYDz3FgD+kn7jiM4P5otxYeJSF6VxXIGUbc+3J3LrArdV1Xz8903KKnxS9/6wc4L5Qbh94t1IEbu2ByuYJ0G0KBmtmkb06ruHHe/VKxAZ4L4rbxLXaFdLWUdAVij13nqyuMAkJAWls46BFg/pBWDhjkn34dLkZaxj2PVcyXIU9+xjHYMQn5ATzn5qyTHNSvcvcJuU9ciXsZ1OcVHiVRBxA0d83bUZtzo/zAiVy4uwt3M76xgexW0LXI1RDa3pzw2s9WYdfmvdiMK24cMbsiRZuH3SfYgJTHNa+wEcARKDMpElmYUr0+/EA9NX4aV5H+C78wsw2cqTuz59P8ID2O9pScZXO+ONygFgchj7Ia5kbGZEsu/FpQLXvvunPY7FcZewjmGTcUiP1cUPo0rueauqEuJp0sXus+5F86D7TzEpkG7EEIZv+zmers64eVTXJQanYk7kIienGblC6sUdES7rALZoTGr06rtOek1p6MVnte8iPTgdaeKMk47Nj5oH1cR78WXdf9A6hvlkcYFpiBGl4oy4czElLAcpwamnvabfoEQQVwiev9t+O4kLKA0DbrFFkDv9oCWjk3LK+xkLtJLy6T0yYzX+n737jm+y2v8A/slumyZNm+69oS10UvaSoQxBWQo4r17Bq+IeFNTrYojivoo/x3Vw9TqQJQIteyMt0JaWLrrSPdPsJk3y+wPhikBJ2iTnSXrer5cvleR5zgca2nxzzvketUGJ31sPkY5yTQqDHKvynsfrmR8gVkK3LlCUvQR4BMGd4w6tUXvjJ9tZpYLZnZRbtY3YLdtMNEOadDTCRX2fBLsz/gGcbD1ow0TWO9yUg4L200hm0OoBJmPsDK62R33Ns5+a1JV45+wbUOqvLixuDpmK+bF/R5jIuqN6hDwx4iTpWJL0IlaN+AjrRr2PWRGzLCpuAUCuV8KLf/V5vZRra9SQX54s5Irg7xFIOgbVT4EeIaQj0E7KFuCwOFiesRoJEuaummjVNmL16Reu2OJDUZTtRXgy41hIM8yoZfD37+zaX6EwkD3L9c74/jWLSpZmIE5MvrFYTi35fczOgrEFrs6oRWd36zUfK5Hn4v3Ct2A09Vz12K3hMzE/5kGEet54RkTqFoQ0v4nIyngHn4z/BnfELESYZ7jVWRUGJbx4Iquvo5xbl76LdAREWflhDsVMQR7kz8KVd3eQjuAUxHwJstJXI8yGW2JsrVZViVW5L6BV23zjJ1MU1SdMWHlzSXt3G+kI16TpUWO3bAvRDCHCCAzzG9Xv+yyKJ39k0O66X5xizzUTMLfANfXe0fNo4058XPTeNR+bGT4Ti+MfQ9R1Gk95cMVI95uI5Rlv4q1RH2Gk/0irsnV0d+JMRz42nP8E/73wAzZXbYKY52nVPSjnpzGoSEdAlDiOdATKBgI9QklHgNZI/vXsLII9w7E8Yw0kfF/SUa6rXFGE1bkvQMGAD+IoyhVF9GPJq60ZTHrSEa4pu3Yb8V4lC2MftMl9xgdPgVTgb5N79ZXJbEK2jM7iWoKxm0avd97sJQaTDr/VfA8eW4CHk5Zd9fjNoVMg4nvim5JPIFMWQ2fUgsd2Q7Q4CXcPehijAiz7NKfbqEdJVwkO1O9Dt1EDmbIKSkM7uk1q9BgN6Oxugb97CIScv/fp90k5L03P1cdWORqTPkGm+o7NYiPAPQTN2npiGdQ9tMC1xiBJErIy1uLFE0thMBtJx7mmws5crMlbjleHvwc+R0A6DkW5lAgx+e73lxiMTC1wyTZG4rA4mB4x12b3Wxy/BB8WvmGz+/VFtmwL5sXcA6mbH9EcTMfYArdFe/VZs39lMHVja9VXYLPYWJL46FWPj/IfCT83f3xb9gXK5fmYG30P5kTNA4fV+2/bYOrBqbZcnG3LQ2Hb79AbNWjQVMFwnXMivXjefWo9Tjk3WuBSthTkEUq0wNUYlMTGdlYZfiORlfE2Xst9inSU6zrVehir85bjleHvko5CUS5FxPMiHeEyPQNncPfU/YoyxTmiGRbHLrXp/W6LWoiPClfBTLAjtFzfgRzZdiyMe4BYBmfA2AK3XXv1WbPXYjB1Y3PllzCaTfjHNWZyY8XRWJH2Twg4/Bveq1nbgmPNR3C4YS+U+lZUKYotyuDj5gs3rptFz6Vch8ZAvsB147iTjkDZiDvHg+j4GqMGZrMZLBaLaA5nMz54Kp5OeRXv5P+TdJTrOtKUg7V5WViesYZ0FIpyGe4c5rzvY+IS5d015JfS3ha90Ob3vCtuKTaWb7D5fa2RLduCudF30ZU5vWBsgdtjvrqB1PUYTN3YVvUV9CYdHhvyNDgszhWP36i4bdS24GDDPhyq34VGzQUo9Z1W573RrDDletQMmMF1pwWuy3Djkv9aanrUENJ+AlabETEPKoMS/1f8Nuko17WnfjsEHHc8lfoy6SgU5RIEDPr5azAZSEe4wvHmgzjTfoxohqmht0Mi8LH5fefG3EO8wK1VVSJHth0zI+cTzcFkjG0yZTKbrHq+wdSN7NofsOLkU+i0sBuoyqDGL9Wb8capF/Bj+b9QJs/tU3HLZjH2j5GyIy0DClw3wrN+lO0w4WvJhGX3zuqO2PuxKHYJ6Ri92lH7Iz459xbpGBTlEpi0goppe3BzasjuvQWAedF32eW+Yr4XZoQvsMu9rbGb8P5mpmNsZWZtgQsA3UYdzrQevmGDqksONezCl0VrUCo/BUUfCttL2Mz9Y6TsiAldlJkw60fZBhO2OTDhNe3MHkx8HLMiFpGO0atNlV/jy/Mfko5BUU5PwIDv2ZcwaYlyYcdpHGrKJpoh2ScTsZIEu91/fsw9dru3pYrlZ3CwIYd0DMZicGVm/QZuLpuPO2MfgkTgbdHzU6XDMSZ4Bnzcgqwe68/CRJH9up5yTkyY7XJj0B4gqn+YMBugNpJ/TTu7J1JWYlLwTNIxevVd+af4ruxz0jEoyqkx4Xv2JUxaopzNgL2382Pvs+v9w0XRGOU/ya5jWCKHzuJeF2MLXGvLWy6bj/sHPYEHEx6BwMI3/cGeYchKewXPp69CsnQshFyx9UEByJTVfbqOovqLy+aRjkDZCI9940Z4lHNYnrEaw/3Gk47Rqy9L3sMvFzaSjkFRTqvHZHmvmIGiSlGOXbJNRDMEuAdjdOBEu48zP+5eu49xIydaDuB060nSMRiJsQWuNX08xXxfPJ78MhbGXfsTm2J5OZq1bde9fpjvcLw1+iM8kfo6En2GQ2hl63eS7cIpcty55PdM6oxa0hEoG9EaNaQjQMiAfcCugM3iYHnGaiRIUklH6dXHRWuxo+Zn0jEoyil1M+jnL48hH3bvrt1G/D3xHbGOOT4nRToMg7ySHTJWb3Jk20lHYCTmFrgWNm7y4IqwbOhKzAi//ZqP72k4iK9KPsFTR+/FlyWfwWg2XvN5HBYXk4InY92oj7Es+RUk+YyCh4Uzuqbr3JNybR5c8t1mu3uufTYz5Xx0DPhaujPgNe0qxHwJsjJWI8wzmnSUXr2b/wr21u0gHYOinI7OSP579iVMWAHUom1Etmwz6RiYFXmHw8a6I+5vDhvrenLqtqBCfp50DMZhbIHLsSAaly3APYMexU0hU696TNujw09VW3CkfidquvLRoqnF7tof8PTRfyC3Le+693TjuGFKyFS8PfpfeCF9HUYG3Aw/j/Bec5jMZpj70BSLcm4ePCHpCHQG14UwYTaACa9pVxIsDMfy9DXw5vuSjtKrNadfwJHGfaRjUJRT0fWQX3VzCe8Gx2E6Qk7tdigMcqIZFsb+3aEnm0wIngo/9/718bGFbDqLexXGFrjsG5wry2XzsTj+H1gQc/dVjykMKvxY9QvOt5/AkcZf0d7dDABo1zWhqOMYPip4Ax8VvYdmbfN1789j8zEmcCzeGPEOXs98H3cPehLR4iHw4Iqueq66R4luCzs3U66DCUuUmVAUUbbBhA8rPBjwmnY1gyRJyMpYCx6LGUsIr2dV3rPIbSF7biVFOZNuRs3gkv3+oulRYzcDZm9nO3D29pKFsQ86fMy/ypZtRrOmnnQMRmFsgctlc3p9/LbIe3Bv/N+v+nWFXomfq35BWfsJHGr49ZrX1qnKsbf2J2SdWIafLvxww/bqsV5xuH/Q3/Hx+I14bcTHmBV1H8I84+HJv9ituaO7lREddSnHEjJgOaeWQT9gqf4hvdzcjeMONqv377tU36T7jURWxjrSMXplMOmxKu85FHacJh2FopyC1sScn7+klyhn125Dg0ZGNMOk4Jnw9wh2+Li3RS0Eh/DPTlWPEtmya9c8AxVjC1xf94DrPpbqOxb3Dnroql9X92jwS+12FLUexcmW3pdbKQ1dqFUW478Vn2DZ4QewU7bzhhvjuWwuUqVpeGLoc/ho3NdYmbEedw16AlyOGIoeOoM70DBhBleh7yIdgbIRpYHs15IJe8pd2fjgqXg65VXSMXqlNHRhVe7zKJcXk45CUYzXqCZb0P0Zn3iBS/64mtnR5M4gXxS3hNjYl2TLNkNNz7K/jLEFrv911rQHeUTimZQXIeRd+Wasx2zEDtkuFLUcRn77UYvH6epuQ0XXWXx1fj2WHrgL35V/A6UFLxAhT4RMv+H426CH8FjKS9AyYHkh5VgeXPL7FWsU5aQjUDbSoKklOj4TViS4uhkR87Ak8VnSMXrVpmvC6rwXIFNWkY5CUYxWo7hAOsJlJPfg7pH9ijLFOWLjA0CiJA1DfMh1rZ8bfRexsS9p1NTRjsp/wtgC91pn2Yr5vnhs6HIECUOveiyn/gDymvbhTNvhPo3XrmtCpaIAX5W8jYcOzMOq0y+j2MKuZE2aFlQqyb45pRzPg0e+IKiiBa5L0BjUkOs7iGZw55B/PQ8Ed8Tej8UM+LS/NzJ1FVblLUeLpol0FIpirBplJekIl5Fcory7dhuxsS+ZG0O2wBTzJbg14k6iGYCLS8Wpixhb4Lpz3BAjHnz5/3lsAWZG3IERAWOveu6ptrM40bgLZ1oP9Xtck9mENm099tf9ghXHH8KSA4vxf8Wf4FTrqetek+aTBA+ue7/HppwLE5YoVykrSEegbIAJS908eORfzwPFAwmPY3YEueV0lqhQFGF13gtQ6Ml2RaUopqpRMecDZqmATKf2400HcaadbHM6qVsAJoZMI5oBAOZGLyYdAWWKQnrs2x96b1VMkBvXAyb87+idGHESFsRc/eKpUsqQU7sN5ztyr3i+LagMcqgMclQqCnCkMQpuHBESfNIwImAMkryHwIt/8ZxcDpuLVh3Z2RfK8UJucHyUI1QqSkhHoGygQVtHOgIiRLGkIwwoj6eshMqgwL4G5r4ZOdeZh9W5y/HqiPeuuaqKogYqnVGHRg3579sAwAIL4SIy520zYe/t/Oh7SUcAAISLYjA2cAqONO0hmiOndjsmh84kmoEJGFvgenCFCPGIRJWiDEKuGE8kL4eYL7niOV16JX6t/RU1inPo6G61a54G9cX9SJWKAhxt/A1CnheiRUkYFjgGUoE/jGYTtD06uHPpm4CBwtfdHzw2/4ZduO3JBBNqlZXEfrhRttGoJv9GKVIcQzrCgLM8Yw1UBiV+t8HqI3vJbTuCNbnL8cqI90hHoSjGqFEyZ/9ttHgQkXEL2k/jcFM2kbH/bFaU448Gup7bY+4mXuDmth3B7y1HMNz/6hWvAwljlyh7cD0vn/E5PWIB4iSJVz1nX+MhVHbm4YLCsR0f5d2tqFdV4HDjVnyc/zLePZuFXZVfoIpB+zEoxwgVRpCOgPIuy/aKU8xV1H6GdAT6IQkBbBYbyzPWIEFCrjmKJY4078GavOWkY1AUY5TJi0hHuCxSFEdk3BwG7PecE3UP3DjM2SKYKh2GREka6RiM+NqQxtgCl8vmAmwBgoWRmH+N7mSF8vM423wQhR0nCKT7n26TDu26RtSrK5Bd+wvRLJTjBXuQL3BLOgtJR6D66XQb2T1MABDpSWdwSRDzvZCVsQbhnsz+gGFv/a945+xrpGNQFCOUdDDn526k2PHbS6q6yrBLtsnh4/7V7EjmzN5eMjfmHtIRsL/hNxR3FpCOQRRjC1wA0PfosTjuQfi6+1/x6226Tuyu3YkaJbPO6quQn0e3kTkHf1P2FyQMIx0B5zsG9jcxZ5ffnkv8mDEJ3xdeAm+iGQayYGEYstLXwlsgJR2lV7/V/oiPC9eRjkFRxJ2X55OOcFkkgf4Ju2XbYIbZ4eP+2bjAmxEmiiKa4VomhtyMII+rT3txtJzagX1kEGML3M7uLkyKWIBp4XOueuxg8xFUdZ5Gnbra8cF60aCtwXk6mzaghHiSL3BLugqg0HeRjkH1UWFbHukIiBTR2VvS4iSJyEpfBx6LRzpKr36p+gZfFH9AOgZFEdOsqUetijlb0hz9/btF04Rs2RaHjnkts6LIH8tzPfOi7yMdAdmyX1CnqiYdgxjGFrhivicUBtVVv17SVYmTDTko7TpLIFXvFHo5jjXuJx2DciAmzOACQImc7CHrVN+dbfuddATaQZkh0v1GICvjLdIxbuj7iv/Dd2WfkY5BUUQw6eetG9sNQULHzhbmyLZBYSB7fNggr2Sk+40gmqE3t0cvgoAtIJqh29SNbNnAncVlbIHLYXHgyfVAl155+de0PTrsqctGvbqMYLLeFbbnocdkIB2DcpAQBixDAYCyTub8wKUsV6eqxtn2k6Rj0A7KDDI+eAqeTmH+XtcvS97Hpgvfko5BUQ5X1M6k5cmO7aCsMaixW7bZoWNey2wGz95esiDmb6QjIFu2FV3dnaRjEMHYAhcAJAIxOvWKy/9/qv0MKuWn0dzHs8dMYGN6xD3g8XxhttNvvV5dw6hP9yj7YsoM7uHGHNIRqD443nSQdAQAtIMy08yImIulic+RjnFDnxS9iV+rfyYdg6IcKq/1KOkIlyX7DnPoeNmybWjQyBw65l9J+D64Jfw2ohksMecaDXIdrU3XhJwBOovL6ALXhy9Bu/7iJw+tug7ktpxErbLvs7eegnAM9RuNtSM/wdy4xxHvMx4CnhRmsGwVGRqjCvvqfrPZ/SjmS/cdQzoCLihKcKKZuWdpUtd2tHEf6QjgsXhIkTr2TRJ1Ywti78PiuKWkY9zQewWvYI/sV9IxKMohzrafQo2KOWfgZviPcuh4u2u3OnS8a5kTdTfpCBbxEnhjZjj5mebsuq0wmY2kYzgcowtcP4E32nUXC9wTLb+jSVUGub6tT/cygodRgTfh5uBxSPFOwKMJf8dL6a/gn5kfYEr4/Uj0nYogURJM4PW74D3degLy7o5+3YNyHhl+I0lHAAAcbSBfLFGWK+o4i3Od5BtMDfMb2IfBM9kDCcswO3Ix6Rg3tPbMcsL9VCnKMfKaj5OOcIUhPo47QztHth3lCvIrFGdFMe9ooOuZG72IdARUKkoH5Cwul3SA3vi6+aCtuxPVqnqUyQtxurXvM1SRXqlYFLPwil8L8vBHkIc/hvumoEXXjhZdG2SqBpR1laLb0IkadT06ujug61FArW+GyWTZUR516ipsr/4J9wxi/qfvVP8N9c0gHQEAcLgxG39LeAw+br6ko1AWON50gHQEAECG/2jSEahePJ68Aiq9AvsamD1L+nXph6QjUJTd5bWQP7P8kky/cRBw3Bw2XjYDZm9nht8BMV9COobFIsSxGBMwBUeb9xDNsbt2G24Jv51oBkdjdIHLZrER4OaLnIa9qFeU9vk+RvCRIs1EpGfIdZ/j7yaFv5sUQySDMD30JhhMBsj1SlSpZDCYe3Cg4RD21fwbLJgsGvNww27Mj7kH7lyPPuemnEOidzI8uWKoehQ3frIdqXoUONK41ymaL1DAsSZmdFx35AwA1TfLM1ZDZVDi91Zm7NmmqIGoVF6IMgbMYF6S6jvcYWMdbzqIM+0nHDbe9cx2otnbS+bE3EW8wC3o+B1Hm/ZjTOBNRHM4EqOXKANAoLsvZIoSFHT0/S9WiCgRi2Ote9PPY/Pg5+aD4b4pGOOXgVvDpyFIONji6yuVZdhVS/6cMMox0v0cuw/menbT15xT+K1mE2oZsI/L3z0YsZIE0jGoG2Cz2FiesRqJEvphBEWRskfGrP4qidIUh43FhNnbEX4TEONl+ftwpkj1zUSiJI10DOTUbiMdwaEYX+AmSeIx3LfvLwwjeMj0GwV/N2m/csSIIjBYOhywYn/u3rod0PSo+zUu5RyG+JD/5gUApV2F+K1mE+kY1A3sYEjn2TRfZuwfp25MzPdCVsYahHvSjtcU5Wgtmgbk1JEv8i7xEfghydsxBW5Bex4ON2U7ZKzezIp23tVpc2PId1Q+0pSDgnbyfT8chfEFLgCEiaIQJ07q07UBwnjMj57f7wyeXA9MCZ2MEJHlsx0l8nzsrPml32NTzDfYJ5l0hMuYUjxR1/ZbzSaUdhWSjgEASPJx3AwA1X9BwjBkpa+Ft6B/H9hSFGWdnLodUBnIbkP6s6E+GWCzOA4ZK6eWfIOiKFE8RgaMJx2jzyaGTEOwB/ljJZnwtXQUpyhwA9yDEO4ZZfV1JnCQ4J2MEI8Am+QYJI5BlJd1bwh31PyEdl2rTcanmCvROxl+7kGkYwCgs7hMx6QPIBw1A0DZTpwkEVkZ68Bj8UhHoagBoduoQ46MWcs7U3wzHTJOVVcZdsnIv5+YHbXwxk9iuLnR95COgN2yX1CtKCcdwyGco8D1CIaXwMf6C9nuuCnEdhuqvfliTAufgRBRosXX1Koq8UnhOptloJgrTcqc5Z5MKqKo/2HU7K13OiLEsaRjUH2Q7jsCWRlvkY5BUQNCjmw76tRVpGNcJuR6YkzQJIeMtVu2DWbCh4AJuSLMinS+5lJ/dXv0YrhzyDaeNcGE7AFyZBCjuyhfwgILaX4jkFO3FUpDl8XXhYsSkSG1bVOOJK94hImHoE55HiwL/9IfaNyJtJoRmBnR/6XSFHONCpqI7LrNpGMAuDiLu+nCt5gXQ/4TQ+qiDl0bfqz4N+kYl40KnEg6AtUP44On4JmU17A+/2XSUSjKZakNKmyp+o50jCuMCZwKqZuf3cdp0TRht4z8exp1jxJTtg0hHcNlZMu2YG703fB19ycdxa6cYgYXAEKEYYjwtHy2wQQOkn1SIbTxMT0inhALohcg3tu62bqfKr5CZ3eHTbNQzDIqYAJCPCJIx7jspwtfoUXTQDoG9Yfvyj5HnbqadIzLnHk/E3XR9Ii5WJr4HOkYFOWyNl34FtVKZi3pHBPsmNnbbNk2qyaVKOcg13cgZwDM4jpNgRssDIOPm6/Fz+dxvDAtbIZdsiR7D0aq/xiw2UKLr6lTV+OjglV2yUMxA5fNxSgGnTHWpmvGTxe+JR2DAnCi+RC2VG8kHeOyTL9xiKTLk13Cgtj7sDhuKekYFOVyKrvK8NOFL0nHuEKEZ6xDzjJVG1TIZsDsLWUf2XVb0W3UkY5hV05T4HLZPIwKnAh3jrtFz4+TpPb7aKDrYYGFGaE3Y1jgLVZdd7BxNzace9sumShmGBU0kXSEK2yu+nZAtYVnoh5TD74r/Yx0jCuMDJxAOgJlQw8kLMPsyMWkY1CUS/n5wrfQGrWkY1xhTNBkh4yTI9uGBo3MIWNRjidTVbr8LK7TFLjAxU61gySWHcdSJj+DGk2d3bKECYMxK2IOIsTWnX+6qfJrl39RDWQp0mFIkDCrM+2mCjqLS9J/y79AsfywjMcfAAAgAElEQVQM6RiX8dh8jAygBa6reTx5BSYH30o6BkW5hKON+xjTU+PPRgc5ZpXY7lpmdY2mbC/bxb/GTlXghnhGIMzC44KMRjm+PP85uvRKu+XJkA7BUL8xMMHys8jMMOOTc29CpmRORz7KtkYHOmZ/jKWONu/BV+c/Ih1jQDrZfBhflX5IOsYVRgfchAAPZhxpRdnWCxmrMcKPfnhBUf1Rr6rBhiLmdSlP9x2DwRL7N1vKkW1HueKc3cehyCqWn8HBht2kY9iNUxW4ADAxdBqC3G98WDILZhS1H0FOwx67ZeGzeZgfeRtS/W8BwLL4OoVBjhUn/4Emtf1mmClyRjFw+efG8g3YW7eDdIwBpbO7HV+cf490jKuMYODrk7INNouN5RmrkSixbmURRVH/82nRejQycHnu+OApDhknu3arQ8ahyMupdd0VpU5X4IZ7RiNSZFlzFC66sanqRzRqWuyWJ1QYhAUxd8LXY5BV1zVq6vBBwWo0axrtlMx19JgMqFfVoKjjLM60/Y7izgK061pJx7quSHEsRgUwaxYXAD459ybK5edJxxgwvij+AJWKUtIxriAV+NPlyS5OxPdCVsZqhHvGkI5CUU7ni+L3cax5H+kYVwkTRmFq2Cy7j3O86SDOtJ+w+zgUM5xoOYDTra759Xa6Atdb4IMhvukWP79JWYIvS+3bBW+UXwZujboDIkGIVdf93noIH+S/Tmdyr0NtUGFf/W9Yk5eFVXnL8cSRu7Eq91msP/MS1p5eie1VPzD26KVbwm8nHeEqcn0HPjm3zuU75zHBtqofsEu2iXSMq0yPmAcx34t0DMrOgoRhyEpfA2+B/c/KpChXsbduB76vYFZDwEumht0GAcfN7uPQ2duBJ8dF9+I6XYELXDxvNE062qLncmDAseb9yO8stmumORGzcFPYPBjBs+q6k62H8GHhGtSpqu0TzEmVyouwOu8FrM57Hgcbd6GsqxDAxSKtRnUBZ9qO4f+K1+PNvBUokTNvr8jYoElI8RlBOsZVCjpO4a3TL5GO4dIONezBB4Wvk45xFTFPgunhc0nHoBwkTpKIrIy14LH5pKNQFOOdbjuJ9/JfIR3jmkQ8L0wJtX8DuYL2PBxuyrb7OBSz5NRvQ7ncvjUSCU5Z4IaLojHIO8ni5+v0jfi0eAPUPRq7ZRJy3XFH1BzcEnk/TFb+sZ5sOYiPCtagQl5ip3TOQ6HvwsbS/8P6sy/hZMvBXp+rNWqQ23YEa/OysLfuN5jMJgeltMy0iNtIR7imA4078cap50jHcEknmg/htdwnSce4pukR82lzqQEm3XcEVqSvIx2DohhNb+zG+jMvM+5IoEtuDrsd/h6Bdh/H1bvqUteX7YKnuzhlgQsA44KnINXCGTIWTChuP4pN1fZdehHo7of5kXMwLfJvMFvRdAoActuO4l/n3sTJliN2Ssd8DapavHX6RXxV+gEqFWUWX1enrsKbZ5bjp4qvobXjhxjWmho2G/Fi+3c87Ata5NperfICXjz5COkY1+TO8cCM8DmkY1AEjAuegmdSXiMdg6IY66kjf0Oztp50jOua6oDZ28quMuxm4LYayjGyZVvQpG4gHcOmnLbAjREPQqQ4zuLnc9GN/fXZqFbZd79rrDgcM8JmYkLoQquvLew4hU8K38RXJf+C2qCyQzrm2lu3A6/lPoPjLfv7dL3JbMJn59fjh/IvoNB32Thd390Swby9uJccaNyJjwvp7I4t6I3deGA/M2fsAWBGxAKEeEaQjkERMj1iLpYm0g+0KOqv1p1+CaVdBaRjXNeUkNsQK0mw+zjZsm0w230UiqnUPUrk1LnWDL7TFrhcNhc3hU3HEO8Mi6+p6TqNb8o3otuot2MyYIh3PG6NvB1D/axv6V6nrsLGsk+wNi8LtcpKO6RjFnl3Bz4qXIt/nVuDCkX/O/xuLP8UP1b8G3KGNJ+6Jew2hAktO7uZhF+qvsHG0k9Jx3BqKoMSM3ZY/n3I0XgsHqbT2dsBb0HsfVgct5R0DIpijC+K30d23WbSMXo1Jdz+s7ctmgbsljH7z4Gyv2zZFpeaXHPaAhcA4sSDES2Ot/j5bBhxsjkb22t32jHVRek+SVgc/wBCRKl9uv54y36synseW6v+Cx1D94X0V2H7abx+6jlsqdoIhV5us/v+t+Jz/HTha0YUuW5cd9zC8OLiq9IPaZHbR3Wqaty+cxTpGL2aHjEfkWLLjlajXNsDCctwW+Ri0jEoirj3899gbMfkS6aE3IZhfvb/+ZIt+xVKA3NWvlFkNGrqkCNznVlcpy5w+RwBpoTfinTpGIuv6da3YEvNjzgvr7Bjsosypcl4NPk5RHr1rZvuBUUJPi9ejzW5yxnZKbivGtV1+LRoPd4veB35HSftMsYPFV9g04WNkHe32+X+1rgl7Db4uweTjtGrr0o/xGdF75KO4VQKO87g/n32/3S9P9w4bpgZMY90DIpBliWvwOQQZr9uKcpeFHo5VuU+j+01/yUdpVcinhcWxf3N7uOoDSpk09lb6g+u1GjMqQtcABgkSUK8d6JV1zQozuGDoveh0Nt/Kn64NAUPD3kSsd5jrW48BQBaoxZHm/diTe4L+KBgNRpUtXZI6RidunZ8VfIvvHbqGfx04d+oVpbbdbzvK/4Pu2q2Ep8B93aTYmHsA0QzWOKHC1/grdMvMapRF1MdbtyLp47cQzrGDS2MfQgxXoNJx6AYZnn6Gozwm0A6BkU5VHFnAVaeeBT7G34jHeWGFsctQYQDVt7kyLahQSOz+ziUcyhTnMOeul9Jx7AJpy9wOSwuJgbfjFEBkyy+hg0jzrcfxb+K/2XHZP8zTDoUDw95HEm+k2Du4x95vaYG26q/wxu5L+Db0g1OVeh26NrwbekGLD+xFBvLPkG5oshhY39e8g62V/0Io7nHYWNey+yohRjmO5ZoBkvsrtuM548twdm2U6SjMNZX5z/Cq6eeIB3jhuLEQ7Ag9j7SMSgGYrFYWJ6xBomSNNJRKMohdtb8gqzjS3Benk86yg2lSkc47Hv37lr7ni5COZ/sWtc4MsjpC1wAiJUkIMV3GDy5Youv4UKP7LrN+LHyZzsm+59U70Q8nLgMqQHTYQKnz/cpUxTi69KPsD7/FXxatB6VXaXoMZEt3q6nSlGGDefWY8WJf+Dr0o9wQWGbc36N4Fn1/E+L38KOavLt7+9wwHIjWzgvP4vnjz2Inyq+Jh2FUS7IS5B1/B/YWL6BdBSL3Bl3PwQcN9IxKIYS8cXIyliDcM8Y0lEoym5MZhM+OfcW1ue/DHWPczTQWRj/d4eMkyPb7tAJB8o5nG47ipPNh0nH6Dcu6QC2MibwJhS1n8XhpmyLr+GY1PjhwneIlwxCqs9QO6a7KFESi2WJy/Axi4dTTTvAgaHP98pv/x357b/jWNM+hAujMSZ4MtJ8MxHgEWLDxNaTd3dgb90OHG86iEpFKRSGTpvevwcCGFlcwMwCB5Z3w/6g8HUYTHrMiyG3rDTdbwRuj7obW6o2EstgKRNM+LT4LZTJi/BgwuMIFIaSjkTUbzWb8Hnxu1AYbNcMzZ4mBd+KiSHTSMegGC5IGIqs9LVYefIRdHS3ko5DUTZ1QV6Cz4rfRW7bUdJRLDYv+j6HNJYC6OwtdX05tdswImAc6Rj94jIFbpAwDNMj56JZ24CyLksbMpnRqb2A9ws/wNsj10Eq8LZrRgCIFIXi2eSn8BlfjJzaH8BFd7/uV6+uQb26BidbDiLBOxXBHuEY4puGFGkG/NwD7T6DYzQb0aZtwe8tR3Cq+QgqFMVo0TbaZSwfj1jcFf8wkiXxeKvwXZxvP2pVkftJ0Zvw4ntjShi5Bit3xv4Nx5r2oUXrHAdq72/4DcWd+bgrfglmDMBmRTJlFb4r/wI5dVtIR7GYG8cNd8bdTzoG5STiJAnIyngTK048DIPJvkfoUZQjKPUKbLrwDX668G90m/r3HsuRwoRRWBjnmH4dx5oO4Gz7CYeMRTmfA407MbfzHiR6J5OO0mcuU+ACwBCfNCT5pFlR4F7cj1vdlYv1Be/hn+krIeDw7ZjwIn83KZ4e8jgCPYJwoG4nGlWFQD+P2DbBhKLO0yjqPI2c+i2QugXATxCIaK94JPsOQ4woDmKBN0Q8L/D7+HvUG7uhMiih0MtR0J6Hks5CVCrK0Kytt2uLeRPYSPOfhkVx92CY9OJM+8djPsTyUy/hZOMOq4rctWeWg81mY2LwNLBZjl+h7+cegIWxD+CDwjccPnZfNWvr8U7+P5HbfBSL4h9CnAMOnWeCzZX/wX/KPoVcT/64KWvQxlKUtdJ8h2NFxltOsbeconrzW80m/HzhG9SqLpCOYrW7Bi2Ft0DqkLFyXKhbLmUfObXbaIHLFB5cIaaF3w55d7tVXfI4MOBY46/4vDQIjyY+bMeE/+POdcOD8fcgRZqM78u/w5mWXWDDaLP7t+ua0a5rRklXPn6r/QnuHA+I+RIIeSKIuRJI3f0gdfOHj5sfPLgeEHDc4Mb1AJ/NB5fFgxE9aNM2o1XTjFZdMzp0rVDou6AxKiFTVcFotl3W3hjBx8jg2Xgw/gHEisOveGxt5ut46qQJ+c3bwYbJ4nuuznsebLAxOnBSn4v9/pgdtRDHGg8gt+2Iw8fuj0NN2fi99TDuinsYi+IfJB3Hbgo7TuP70s/xe+sh0lGsRhtLUX01Lmgynkl5HevzXyIdhaKsdqL5ELZWfo9Trc65d/COmAcxJdQxq8sK2vOs2s5HDUzZss2YF3M3Qj0jSUfpE5cqcAEgxmsQbgqdgXq1DGVdhRZfx0U3fqj4HJ48T9wXd7cdE15pmDQFAW7++KEyFGdaD6JZZZtGTH+lNWqg1WoAsifmWMwMFsLFqRgTNAXzo+ZAwr92A7FliQ/jcw4XJxs2g2VFkftG3rNYmbEOY4Omgse2rmmVLdyX8AhKjhdA1aNw+Nj9oTNq8UXJuzjSuAczI+e71LLloo6z2FW7FTtrfyIdpc/+nvQkbSxF9dn0iDlQGRT4tPgt0lEoyiInmg/ht+qfcax5H+kofZbpNw5Lkp5y2HiudNYpZT/dpm5ky7bhgYTHSUfpE5crcAEgRZqBsz5pVhW4AMCHDp+XfABPnifmRd5up3RXCxMGYVniUhxuTsWOmi3Ib91j09lcZ2MEHxkBt+DeQfchWdL7UstoURjuj/8b1AYFzrXutarIfT//dfSYejA1bHZ/I1stwTsZ/xjyAt46u9LhY9tCaVchSvMLsaP6Z6cvdE+3nsSums3Y1+DcZ789nPg8MvxGko5BObkFsfdBbVBgY/mnpKNQ1HW5QmELAD4CPyxJdFxxW9lVht0y8qdKUM4hW7YVc6PvgcQBPYpszSULXCFPhJkR89DV3YG9Vr5pFZi1eLdwDTx5QtwSMtVOCa8xLoePKcHjECuOwn8vhOBUyz7ItTVg9XNvrjMxgYNQ0VBMCLkZt0fMsrjpV7w4Eg8nPIo3dO1oVJ61eLmyqkeJ/5T9HwAQKXJvCb8Ntaoq/FDxucPHtpU/F7o3h89Gpv8YBAvDb3whYUq9AqdajuBgfTaONu8hHaffbg69HfNj7yUdg3IR9ycsg9KgxNbq70hHoajLSuTnkNt88QiT8/KzpOPYxJKkZxDlFe+w8bJl2wbQu0qqv9p0zciRbXPKrU8uWeACQIQ4BtMi56JL32lli3gzBGYNXj/9Etw4HpgQOMZuGa8l0jMUzyU/gYNNmfjxwg8o6TgGrhVNlJyRGSwEeg5GvCQNi2MXIU4cZfU9EiSxeC7lBaw9+yraVMUWX1enrsbPF75BgncykX0GDyU+CZmy0uk/hS7tKkRp4cUVEyP8J2J4wBjGFbuXitrfm4/i95aDTnPkz43EiAfjoaSnScegXMyy5BVQGRTYW+/cKxso53a+swB5Lcddqqi9xJH7bgGgRdOA3bLNDhuPcg3Zsq2YG3M3OCwO6ShWcdkCF7jYGbJeVYtmbQNk6iqLr2P9UeSuPPUM1o/8CCP8htkx5dU4LA4mBY1Dmk8ydsh24XDjfpR1/m5Vt2BnYAYLwaIEhIuHYEH0fAyRDAK3H3+BUn2S8Fzqy1iT9yLk2gqLr7ugKMFnRe/ixcy3iezHfXjIc6hVVaJOXe3wse3hZMsBnGw5AAAY7jceSdI0DJGmIUXq2L9HAFClKEd+2ykUdZxFXusxlylq/2xJ0rPwFviQjkG5oOUZa6AyKHGy5SDpKNQA0aZtwamWo8hvy0VRZx4aNXWkI9mFo/fdAkC2bLtdT7ywVKp0BOkITuVs+0mi41cpy5Aj245p4Y7bumkLLl3gAsD44KmoVlRYVeACAAsmCMwaPHPiMXw45jOk+Qy1U8Lr8xZ44e7YOzElZBK21+7AsaZDqO466/SFrhlshIqTECpKwNyoOUgQx8GDa5vGOBk+Q7A06Wm8W7AGer3M4uvy2o7hYMMuTAmdZZMc1ggWhuHhIc/jxZOPOHxse/u99dDlbsTeAimGeg9DZsBYJPmkIFwUbfPxWjRNKOsqxqnmI8hvP4U6K//eOxu675ayJxZYWJ6+Bi+eeBRF8jOk41AupElTj0ZNPZo09WhW16FRU49qZQUuKOzTaJNJAtxDsNTBq27UBhUjZm/FPAneHvMF6RhOo0Fdi3v3ziAdA9m1W2mByzRivhfmxixGp64VB5t2W3XtpSJ32dGH8PHYr5DsTeZsyUB3Pzw06H7MCp+J7Pq9yG05iQtdZ6AztDvVHl0TOIiXDEekVyKmhd+CQeJouNuh4+vU4PFo1NTj+/JPYTC0WXSNzqjFrpotGOE/HiK+l80z3cjIgPFYmvicS3cv7exux6Gm3Tj0x99DNtiIFg9GlCgWUeI4RIjjIBZ4wZ3tDjeuO9w4//u3zqhDd4/24r+NGmiNOuiMWlQrKlCtqECVohxVyjKoe5SEf5eOQ/fdUo4g4ouRlbEGK08+ihonPFuU+p9njzr+eDddjw7dJg10Ri20PTp0G9XQGp3kOAc7YIGFJ1JeRqQ4zqHjZsu2MWI2fHH8EtIRnEqwMBwj/CdeXhVHSkHHKRxt3I8xQTcRzWENly9wgYsvkEXxf4e6R2312aMXi1w1Hj1yH1amrcK00Cl2Snljge5+uDd2IWaGTcPp9nzk1O1Bg7oMDcoSxnZdNoMNAc8HUeIhSPXNxMSgiYgVh4MFll3HvTv2TrRq2/FbzUawTCqLrmnTtaBaVYmhPml2zXY9C2LvQ7OmAVuq/0NkfEczwYQKRTEqFMVAPek0ziXFZzieSHmRdAxqgAgUhiIrfS1WnHwEHd2tpONQfUB6mSN10VMpr2C4v2N7uwAXZ+CYYH4M/VDWWgvjHyRe4AJAjmwrLXCZKFaSgLsGL4GysAulVh4fdHFPrhqrzqxARVc5Hkv6h51SWkYqkGBq8ASMDxiFSmUtDjQdQpm8GDWKIsh19RZ3EbYXE9hw4/kgUpSIMFEMxgaORaIk3uKuyLbABhuPJD4EhUGOQ3WbwUH3Da+pU1ehU2fZjK+9PJachTZdC4405RDNQTFXiEcEXkhfTc+7pRwqVpKArIw3seLEwzCYnHubDEWRcG/8o0SO1MuRbUe5osjh4/7VHTEPkI7glIb6pCFOnET8a3ikaQ8K2vOQLM0gmsNSA6bABYChPul4IPEJvJf/Sp+WagjMGvx44QtUKsvxxrBV8OC62yGlFXk4fCRIYpEgiUW7rhMXVDU42HAA1coLaNfVoVldDTZ67L6M2QQ2zODC3z0CUvcQRIljMSpgNOLE0Qhw97Xr2L3RG/Uwms3wd/dFu9ayKUKTmfyS71eGv4tHDy5GaVcB6SgUw/DYfLw47G34ewSSjkINQGm+w7Ei4y28euoJ0lEoyqnMiliEeweTmRzZzZDZ2wWx95OO4LQWxT+E13KfJB0D2bXbaIHLVBl+I/HY0JV4I/cZaI0aq6/nQ4fTLQfxyNHHsHb4WgS6+9khpfWkbt6QunljuG8quvRKNGpbUdpVgqLO85ApK9GmbURHdwNMpm6wYPrjH8uLOTNYMIN9+R8vgR9EAil8BEGIFkdjiHcSokXR8HeTwpPnYcffqWUqFFX4oOgjFLbut6opl4gvtmMqy70/7hsszrkZHd0tpKNQDPL68I8QJ0kgHYMawMYFTcYzqa9j/dmXSEehKKcwPugWPJGyksjYx5oO4Gz7CSJj/9mUkNtot/9+GB88BT4Cf+LvCXfLfsG8mLsR5eA95H0x4ApcABgRMA4rMt7Ca6eehMFssPp6LrpR03Uay44+iieTn8YYf2Z1MfXii+DFF2GwVzRuC58BlUGNTr0CcoMCtapayFQyNGkaIO/ugsGkh8ncgx6TAfo//pvLFoDH5oHL4oLN5oHL4sGLL4K/eyCChcEI8wyDD98LXjwxJAIx487Gyqnfh43lGyFT5IFjxd7kZJ9MBHkE2zGZ5bhsLjZM+BF3ZE8kHYViiKz0NzHMfzTpGBSF6eFzoNYrsaF4HekoFMVomb5j8XLmemLj5zBk9vbO2PtIR3B6d8U/hA8LVxHNYIYZ2bLtDu8C3hcDssAFgFGBE/Dy8Pew7vSKPp0LxoEBHZoSrDv7OuZH342F0fOJnKFqCU+eEJ48IcIQhKGSQVc8ZjD1wGAywGg2wmQ2wwwzWGCBw2KDw+aAx+KBy2ZWAXs9JrMJ/y77Bjtrt6FTW2H1XuQh0nQEC8PtlM56Pm6++GziZjx0YA7pKBRhjw7JwuTQmaRjUNRl82PvhcqgwMbyDaSjUBQjzYu+D/8Y8hyx8Qva83CYAf080n3HIMornnQMpzczYj7xAhcAsmWbMS/6bvi6+5OO0is26QAkjQqYgKyMN+Hn1rf9bCyYoNbV4NvSj/BWwfto0DTbOKH98dhceHDdIeJ5wosvgoQvhhdfBE+eEO4cN6cpblt07Xjt9Cp8X/EZ5NoysKwsbof7jcfMiLl2Std3UeI4vD9uYHRVpq5taeJzmBN9F+kYFHWV+xMew22R9LVJUX/1TMprRItb4OJ+SSa4M+5vpCO4BC6bh8VxS0nHQJe+Ezmy7aRj3NCALnABYLj/WDyXtgqhwqg+38Nk7EJO7X/w+unXsLfxkA3TUZY411mGV/NexcH6XwCj9bPx0eLBuHvwwwjwCLFDuv5L8k7BDzfvB4/FzBUClP2sHrkBC+jSLorBliVnYXLILNIxKIox/pn5HqYT/sC8sqsUu2SbiGYAgChRHDL8mLWNz5nNiryDdAQAQLZsC7qNOtIxejXgC1wASPcbgWfTXscgr+Q+34MDA8o6DuHDwjVYV/AumrT0rEB76+zuwifnv8Cb+a+gpH0/OLB+PzWbxcbSpGeR6N33r70jSN38sGn6EcSKk0hHoRzko/H/xXD/saRjUNQNLc9YjZH+E0nHoCiieCwe1o76DOOCppCOgt0ypszePkg6gkvxcw/A9LD5pGNApq5i/CwuLXD/MMQnFU+nvIzRAZP6fA8WzFDpZNhZ/Q1eyfsnchoOoMfUY7uQ1GWHmo5iRe5K/FD+LzQqCvp0FJKQK8KqERuc5tNFD64QGyb+gCl0tsSlBXmE4t83bcdgyRDSUSjKIiywsDxjNZK800lHoSgiwoRRWD/2awzzG0U6Cpo1jciWbSEdA2KeBFNCbyUdw+XMjmLILC5DGphdDy1w/yRGMhhLk57BTUEz+nUfDgyo6DiMj8+9iTcL3kGlssZGCal6TRPeOLMGb+e/hrL2Q+BacQTQn0nd/PHisLeR6YRdaZdnrMHtkXeTjkHZQbrvGLw39luEifq+ZYKiSPDkiZGVvhoRnrGko1CUQw33G49XMt9lzEqwHNm2PjVPtbXFcUtIR3BJcZJEjGDAipli+VkcqM8mHeO6aIH7FyGeEXgk+QXcGn5nP+9khlInw97a/+C9wrexqfpXtGjbbJJxIJLrFfi24nus+H059sp+hKa73upGUpeEeETiubRVyPQfY+OUjvNY8nJGNBugbGdc4M14Zfg7kLox42xtirJWoDAUWelr4CNgdndNirKVhbEPYfWojxEhZsYHO2qDCrtlm0nHAABMDqOzt/YyO6q/NYpt5DBkKfy1DNhjgnrjLZDi0eQXIBZIsKduO1q0DX2+FxtGFLftR62yGMeahmF80ARMCBoLCV9sw8SuS9OjxfGWU9hWsw35rfvAhR796escJRqER4cuR6pvps0ykvJAwjL4uwfi06K3oDVqSMeh+uGOmAexJOkp0jEoqt9iJQnIyliLFSf+AYOpm3QcirILf/dgLEl8GhNDppGOcoVs2TY0aupIx8AdMQ/AW+BDOobLGhEwDnHiJJQriojmONlyAHmtJxi51Y8WuNfBY/PxQMIyJPqk4IfyL1HYkduv+6m6m5HfsgNn2w5gpywTk4InYlroNIj5njZK7Fo0PVrsazyInbW7UaU4i25DG7h92Gf7Z4O8huLR5CzGLCOyhVsjFyDKKx6fnXsH5zrzSMehrOQj8MOSpGfoPiXKpaT5DseKjHV49dQTpKNQlM2NCZiMh5KeQqhnJOkoV2HKvsip9Gea3d0WvQhvn32RdAzk1G5nZIFLlyjfwMiA8Xgu7TXcHHo7xDxJv+/HMqlR0XEQH59bg8ePP4Evy75GR7fcBkldg1yvwH8v/IjHjz+Ft86sREn7HugNrX1qIvVnKdIReDb1VZcqbi9J8k7B2lEbMDtyEekolBUy/cbhzZGf0uKWcknjgibj2dTXScegKJu6N/5RvDrifUYWtzmybcRn9ABgSshtiPKKJx3D5U0JncmI7SB76reiXF5MOsZV6AyuBYKF4ViWvAKDZUOQI9uO8/L8ft7RDC66Udd1Et90ncGeut0Y7j8K86MWIFQYaJPMzqZe04yt1VtxouUYahWF4EAPXj+L2ksmBE3DkqSnGHvOrS24cd3xePJKRIvj6ZJlJ0CXJFMDwbTwOVAZlNhQtI50FIrql0RJGhbGP4jRgRNJR7mu3UyZvQ2nJz04AmtZBw0AAA6cSURBVJfNw9zou/D5+XdJR0G2bDviJImkY1yBFrgWcud6YHbUQiR6p2Bj2ac41XIY3TbYX8SFHi2qAmxVncehxhzEiBMxMXgCJgZNhJDrboPkzKUyaJDXfgYHGg6gtLMQjeoycKC32YvSzz0INwXPwF3xD0HIGxhLwemSZWajS5KpgWZ+zL1Q6RXYWL6BdBSKspqALcDiuKW4M+4BcNnMfct8rOkAzrafJB0D6b5jGLlc1VVNDr2VIQXuZsyLvguBwlDSUS5j7t9WhoqVJOCplFewq/YX7K/fiQrFeZvclwMDFNpK5GlrcLJ5D74ti0eqNBWTQycj1ScFPAZ/Y7WGztiN811l2F+/H4UdBahRngNMWrBh7FfzqL9KkqRjXuw9GB881YZ3dQ6XlixvLPsU/634nHQc6g+Tgm/ForgH6NItasC5P+ExKA1KbK3+D+koFGWx8UG3YFHcg4ybmboWpuy9vZnO3jqUn3sA5kbdi1+qviGaQ92jQo7sV9wz+GGiOf7MNaomB/MSSHBn3API8BuNr0o+womWAza7NxtG8GFEm7oAu9XnkVO/FWGeicj0G4bJwZMR7hkCDyeb2e3SKyHT1ONAwwEUtOdDpiqBziAHBwabbwLns/gYHTgJ9yc8xsg9Mo7ixnXH3xOfxKjAifix/Cscbd5DOtKAFScegjvj7mdct02KcqRlyVlQGxTYU7+ddBSK6lWIMBKL4h7EtPA5pKNYJL89D0eackjHQJQojq5OImBq2K3EC1wA2CXbjDkxd8GTJyIdBQAtcPslVjIYK4a9iV01m7GvbidKuvq7N/dKHBgAYxfquk6gpisXe+q2IcA9AmGicCR5JyLDNxP+blIIOHybjttf6h4NWrUdONd5DkXy82hQ16JWWQK5runi7wmw6WztJbHiREwOnYlbI++Au5N9CGAvST6peHXEe9hduwU/VPwbtaoLpCMNGG4cNyyMfQgLYu+DgONGOg5FEbc8Yw1UBqVNPxSmKFvhsXi4NXIhFsU9CB83X9JxLJZTy4yzSG8Jc44PBFxNnCQRNwXPxP6GHURzNGvrkSPbjjnRi4nmuIQWuP3kwRVibszdGB04Cb9UbkRu61E7FBFmcGCAUlcDpa4GZZ0c5NRyweeK4OcWjjBROAZ5xWOIz1CEC8Mg5ovgzhHYOMO1qXu06NIr0K7vxNm2MzjfWYJmTQPauxsg1zWCgx6wYAJgn6IWACI8Y5DgnYoFMfciQhxjp1Gc2y3ht1+cza34ii5bdoBJwbfizrj7EeM1mHQUimKU5RlrsPLEoyjqPE06CkUBAKRuAbg5dDamhs1CuCiadByrVHaVYpdsE+kYEPMkmBxGZ29JmRJ2K/ECFwCya7fRAtfVBAqD8cjQ51HZVYbvyz7D6faT6NJ32GUsNoxgwwhTTzeaVW1oVJ3FyUYujGDDxy0QEkEAvPjeCHT3R5AwGCHCEIR5hEHI84CAI4CAzQePzQWPzQWHxQGbdeVCYZPZBKPZCIPJCIPJgG6THlpjN3Q93WjRNaNJ04QmbROata1Q6rvQopGhSVMFmA1gw3i5oLX3i8vXLRBDfdIxLWIuhvqkge+got5ZifkSumzZzgZ5DcWC2PvocmSKug5PnghZ6Wux8uQjqFFVkI5DDWAx4sGYGjYbU0JnQSLwJh2nT3bLmDF7Oy18HrwFPqRjDFgjAsYhVTqCeKOxcsU57Kn7lRFL1WmBa2PRXvFYMWwdcluP47fqn1GpLEW9usauY7JhAqAHB4BKVw2VrhoysFAINsx//GMCCz5u/vDiSyHm+8Cd6wmT2QST2QwzzGD9cS8zABZYYLNYMMMEjUEJlUEBlUEOhb4dRlM3WDCDBeMf/754lI+9ZmevxVsgRYpPJoYFjMEwvzHwdSd/DpgzubRs+VTLUeys+QWHGneTjuT0hnhnYHrEHNwSfjvpKBTFeIHC4MtFbnt3C+k41ACTJh2NqeG3YmroLLBYrBtfwFDNmkZkyzaTjgEAmBo6k3SEAW9K2CziBS4AZNdupwWuq2KxWMj0H4003+Eo7zqPHdU/o0pRjtKuAsdl+KMIBYyXf02lq4VKV4v6Pt+T7AvGW+CHNOlwJEnTkOE3ckA3kbKFTP8xyPQfgzNtd2JXzWbspc1frJYqHYkZEXMxKXQG6SgU5VRiJYORlfEmVp542CZH7lFUbyR8H4wJnIoxwTdhuP9Y0nFsIke2DUqDgnQM3Bx6Oz0dgAGmhM7ETxVfEV8Zc7rtKPJajyPDbxTRHLTAtSMum4sE76GIlySisqsU++t3oVxegoKOkzCajTe+AQUAkLr5I9lnGJJ80pDqm4lIcSzpSC4lzXc40nyHY1bUxUKXCft5mG6433hMi5iL8cFTSEehKKeV6puJrIx1eOXUE6SjUC5qpP9EjAmahDFBkyDmS0jHsakyeRHpCABA994yBJfNw9SwWYw4F7dcfp4WuAMBh8VBnCQRcZJEyJRVONVyFKdbT6JUXohOfRvpeIwV4RmLeEkikqWZGOKTijBRFOlILm2ITyqG+KRiVtQdyJFtx7GmfWjRNpCOxRgeXE+MCrgJE0OmYVTgBNJxKMoljA2ajGdTX8fbZ18iHYVyEbHiRIwNmozRgTch2oVnFku7yBe4E4OmI8NvJOkY1B+mhc/BbzU/o0EjI5rjQlcp0fEBWuA6XJgoCmGiKNwUMh3n5YXYK/sVVcoy1KoqSUdjjEFeQxEpisWE0FsQ6RkLf49A0pEGlEGSJAySJOGhxCdxvOkAjjUewLHmPdAZdaSjETE6YBJGBk7AyIAJTnV0BNMFe4YTHT9cRDuuM8W08DlQGZTYULSOdBS7CRFGMGJ/nKtK9slEsjQDQ6TpGOY/mnQch/B3C0K7rplohrmx9xAdn7qSROCDOdH34F/nVhPN4cEVEh0foAUuMd5uUowOnIhRARMgU12c1S1oy0Wzth4VihLS8RwuTpyEYGEYosRxGBYwBhGe0XDnepCONaAJOG6YGDINE0OmoVXbjONN+3Gs8QBy246QjmZ3qdIRGBU4ESMDxiPEM4J0HJcUJowkOn6s1yCi41NXmh9zL1R6BTaWbyAdxS783ANIR3ApEZ6xGCodhlTf4Uj1zXTaLsj9MSVsJs7LzxIb/8nkfyLRO5nY+NS1zYlejKL2MzjQuJNYhiRpKrGxL2GZzWYz6RDURTqjDo2qWpyXFyK35ThaNA0oVxS57H7dOHESIkSxCBdFYog0HSHCCEjpDBnjXegqwfGmgzjXfgaFHadcokEMj8XDUOkwJEuHYUTAeMRJEkhHGhB+rvgGG4odP2uX6TcOa0Z94vBxqRv7qGANtlT/x+rrJHxf/DztgO0D2dCd2ZOJz7g5o1BhFEKEEQgWhiFekohU3+H0A4M/vHHqOYcXMiKeF+ZF34u7By116LiUdUi8NgBgVsQiPJGy0uHj/hUtcBnKYNKjSV2PenUtTjQfQlVXOSqVJdAaNaSj9Uu0eBAiPWOR6JOCOO8kBLmH0GWfTkxtUCK/PQ+F7Xk4136G6KfJ1ooRD8ZQn2FI9s1Aqm+myzUgcRbnOs7gi6L30aCV2fXNv4jnhWCPcMyOWohbwm+z2zhU/63Ny8IeK7u6zwhfgKdT/2mnRLaz4dzb+LnyK9IxGMGd4w4PrghCnggeHE94CbwRLAxDqGc4goXhCBGGIVhIdiuDM9hwbj3Od+SjSH7abmP4CPwhFfgh0ScFc6IX01MsnMShhj04VL8bNaoKtGiboO5R2mUcqVsABnklIV6SxJgPPmiB6yS6ujvRpm3GqdZjqOwqRZuuBXJ9B5o1dYydQWOzWAh0D4UXX4pwURRGBk5ApGcM/DwC4cZxJx2PsoNLBW9+2ykUd+SjQVODLn0n6Vhw57gjWBiBOK8kpPplIlU6nJ6fTFEM9uKJx3Ci5YDFz39jxMcYGTDefoFsqFPXjiZtA/QM/dltDxwWB0KOEB48ETy4QnjwhOCwOKRjURTlomiB66RUBiU6dW3o1HegWlGOKkUFOnSt6OzuQFt3E1q0jQ7N4833hZ97ECR8b/i7ByHKKw5xkkT48H3g7eYHAUfg0DwUc6gNSjSoZWjQyNCgqrv43+pa1Gtq0aZrstk4Yp4EwR4RCPEMQ5AwDMGX/vEIo6sEKMrJqAxKrDzxKIo6bzwrdf+gZYyZNaAoiqLIowWuC9H2aKDUyy8Wv/pOVHWVoV3XCqWhC9oeDYxmI3pMPdAb9eg2aaE3aqE16qA1aqDtUUPTo4KALQCf4wY+xw0CNh88tgA8Ng9cFh9cNgdsFgdsFhsCthu83XwR7hmFKK84+Lr5Q8TzgojvRYtZymImsxGaHjU0BhX+v127x2kshsIwfOL4EnKTgpaCmoJ1TDlbmhXM3mYVSGwgIej+QEGFNCUa0DfPU1l2cyy5eSWf51OdlnOdp9OHvef5VPs+1tgPte/HGof39bg91NjHGodj7fuhhjZ89XWAT/R0fqzff3799WzXruv2eFc/7n7W/c3DP54MgO9M4P4nlnWuy3Kpl+WlpvVS0zrVvE41r3Mttdb6utZrvT+FTW2qbVptq1VvvXobamhDXbXr2m13tet7X4sAAIBvR+ACAAAQoX31AAAAAPAZBC4AAAARBC4AAAARBC4AAAARBC4AAAARBC4AAAARBC4AAAARBC4AAAARBC4AAAARBC4AAAARBC4AAAARBC4AAAARBC4AAAARBC4AAAARBC4AAAARBC4AAAARBC4AAAARBC4AAAARBC4AAAARBC4AAAARBC4AAAARBC4AAAARBC4AAAARBC4AAAARBC4AAAARBC4AAAARBC4AAAARBC4AAAARBC4AAAARBC4AAAARBC4AAAARBC4AAAARBC4AAAARBC4AAAARBC4AAAARBC4AAAARBC4AAAARBC4AAAARBC4AAAARBC4AAAARBC4AAAARBC4AAAARBC4AAAARBC4AAAARBC4AAAARBC4AAAARBC4AAAARBC4AAAARBC4AAAAR3gB3POWDcCqHXAAAAABJRU5ErkJggg==;imageBackground=none;" vertex="1" parent="1">
          <mxGeometry x="190" y="130" width="322" height="99.44" as="geometry" />
        </mxCell>
        <mxCell id="Bpij4LCqo1jzHkcabdwD-3" value="&lt;font style=&quot;font-size: 31px;&quot; face=&quot;Comic Sans MS&quot;&gt;VS&lt;/font&gt;" style="text;html=1;align=center;verticalAlign=middle;resizable=0;points=[];autosize=1;strokeColor=none;fillColor=none;fontStyle=2" vertex="1" parent="1">
          <mxGeometry x="332" y="223" width="60" height="49" as="geometry" />
        </mxCell>
        <mxCell id="Bpij4LCqo1jzHkcabdwD-4" value="&lt;font style=&quot;font-size: 55px;&quot; face=&quot;Comic Sans MS&quot;&gt;pip&lt;/font&gt;" style="text;html=1;align=center;verticalAlign=middle;resizable=0;points=[];autosize=1;strokeColor=none;fillColor=none;fontColor=#000099;fontSize=55;" vertex="1" parent="1">
          <mxGeometry x="502" y="197" width="92" height="81" as="geometry" />
        </mxCell>
        <mxCell id="Bpij4LCqo1jzHkcabdwD-5" value="" style="shape=image;verticalLabelPosition=bottom;labelBackgroundColor=default;verticalAlign=top;aspect=fixed;imageAspect=0;image=https://pypi.org/static/images/logo-small.2a411bc6.svg;" vertex="1" parent="1">
          <mxGeometry x="423" y="223" width="66" height="58" as="geometry" />
        </mxCell>
      </root>
    </mxGraphModel>
  </diagram>
</mxfile>
